<?xml version="1.0"?>
<svg xmlns="http://www.w3.org/2000/svg" id="Filled" viewBox="0 0 512 512" width="512" height="512"><path d="M432,232V153.352A81.351,81.351,0,0,0,350.648,72H341.21A47.975,47.975,0,0,0,296,40H216a47.975,47.975,0,0,0-45.21,32h-9.438A81.351,81.351,0,0,0,80,153.352V232Z" style="fill:#58453f"/><ellipse cx="80" cy="264" rx="32" ry="40" style="fill:#dda37b"/><ellipse cx="432" cy="264" rx="32" ry="40" style="fill:#dda37b"/><path d="M344,120h0c-5.66,20.207-25.986,32-48,32H216c-22.014,0-42.34-11.793-48-32h0c-48,34.447-80,93.2-80,163.777C88,391.983,163.216,472,256,472s168-80.017,168-188.223C424,213.2,392,154.447,344,120Z" style="fill:#e1b293"/><ellipse cx="152" cy="279.853" rx="24" ry="16.147" style="fill:#dd9c7b"/><ellipse cx="360" cy="280" rx="24" ry="16" style="fill:#dd9c7b"/><path d="M152,248a8,8,0,0,0,8-8,24.028,24.028,0,0,1,24-24,8,8,0,0,0,0-16,40.045,40.045,0,0,0-40,40A8,8,0,0,0,152,248Z"/><path d="M328,200a8,8,0,0,0,0,16,24.028,24.028,0,0,1,24,24,8,8,0,0,0,16,0A40.045,40.045,0,0,0,328,200Z"/><path d="M248,280h16a8,8,0,0,0,0-16h-6.557l6.449-38.685a8,8,0,0,0-15.784-2.63l-8,48A8,8,0,0,0,248,280Z"/><path d="M440,216.966V153.352A89.453,89.453,0,0,0,350.648,64h-4.1A56.084,56.084,0,0,0,296,32H216a56.086,56.086,0,0,0-50.55,32h-4.1A89.453,89.453,0,0,0,72,153.352v63.614C53.765,221.426,40,240.819,40,264c0,26.468,17.944,48,40,48,.57,0,1.137-.038,1.7-.066,5.22,42.884,22.36,81.891,49.574,111.906C164.117,460.056,208.41,480,256,480s91.883-19.944,124.721-56.16c27.214-30.015,44.354-69.022,49.574-111.906.568.028,1.135.066,1.7.066,22.056,0,40-21.532,40-48C472,240.819,458.235,221.426,440,216.966ZM161.352,80h9.438a8,8,0,0,0,7.541-5.33A40.052,40.052,0,0,1,216,48h80a40.051,40.051,0,0,1,37.669,26.67A8,8,0,0,0,341.21,80h9.438A73.434,73.434,0,0,1,424,153.352v63.611c-.582.141-1.155.318-1.73.489a209.993,209.993,0,0,0-13.124-32.708A196.565,196.565,0,0,0,348.664,113.5a8,8,0,0,0-12.367,4.341C331.914,133.488,315.72,144,296,144H216c-19.72,0-35.914-10.513-40.3-26.158a8,8,0,0,0-12.367-4.341,196.552,196.552,0,0,0-60.481,71.243,209.855,209.855,0,0,0-13.124,32.708c-.574-.171-1.148-.348-1.729-.489V153.352A73.434,73.434,0,0,1,161.352,80ZM80,296c-13.233,0-24-14.355-24-32s10.767-32,24-32a18.041,18.041,0,0,1,5.594.893A229.038,229.038,0,0,0,80,283.777c0,4.1.118,8.165.328,12.21C80.218,295.989,80.109,296,80,296ZM368.867,413.092C339.1,445.921,299.018,464,256,464s-83.1-18.079-112.867-50.908C112.738,379.571,96,333.646,96,283.777c0-33.062,7.114-63.962,21.146-91.84a181.575,181.575,0,0,1,47.495-59.311C174.076,149.356,193.432,160,216,160h80c22.568,0,41.924-10.644,51.359-27.374a181.6,181.6,0,0,1,47.5,59.311C408.886,219.815,416,250.715,416,283.777,416,333.646,399.262,379.571,368.867,413.092ZM432,296c-.109,0-.218-.011-.328-.013.21-4.045.328-8.113.328-12.21a229.038,229.038,0,0,0-5.594-50.884A18.066,18.066,0,0,1,432,232c13.233,0,24,14.355,24,32S445.233,296,432,296Z"/><circle cx="192" cy="248" r="16"/><circle cx="320" cy="248" r="16"/><path d="M290.258,314.43C283.421,321.478,274.54,328,256,328s-27.421-6.522-34.258-13.57a8,8,0,0,0-11.484,11.14C222.621,338.316,236.729,344,256,344s33.379-5.684,45.742-18.43a8,8,0,1,0-11.484-11.14Z"/></svg>
