<?xml version="1.0"?>
<svg xmlns="http://www.w3.org/2000/svg" id="Filled" viewBox="0 0 512 512" width="512" height="512"><path d="M488,424a32,32,0,0,1-32-32V264a244.484,244.484,0,0,0-23-104.1A31.945,31.945,0,0,0,464,128H414.677c-1.825-2.668-3.547-5.431-5.475-8C372.514,71.088,317.5,40,256,40,145.543,40,56,140.288,56,264V392a32,32,0,0,1-32,32H16v4c0,26.51,39.4,60,88,60s88-33.49,88-60H320c0,26.51,39.4,60,88,60s88-33.49,88-60v-4Z" style="fill:#a32d1e"/><ellipse cx="80" cy="248" rx="32" ry="40" style="fill:#fedac5"/><ellipse cx="432" cy="248" rx="32" ry="40" style="fill:#fedac5"/><path d="M364,160c-86.2,0-159.521-29.679-172-72C129.839,116.161,88,182.642,88,263.707c0,106.039,75.216,192,168,192s168-85.961,168-192a213.774,213.774,0,0,0-17-84.189,32.548,32.548,0,0,0-31.248-19.734Q369.927,160,364,160Z" style="fill:#fee8d6"/><ellipse cx="152" cy="264" rx="24" ry="16" style="fill:#fed4c5"/><ellipse cx="360" cy="264" rx="24" ry="16" style="fill:#fed4c5"/><path d="M496,416h-8a24.028,24.028,0,0,1-24-24V276.766A54.274,54.274,0,0,0,472,248c0-14.131-5.118-26.853-13.243-35.644a250.138,250.138,0,0,0-14.311-46.39A39.727,39.727,0,0,0,472,128a8,8,0,0,0-8-8H418.951c-1.055-1.584-2.15-3.2-3.35-4.8C375.94,62.324,317.769,32,256,32c-47.9,0-94.648,18.591-131.639,52.349C88.572,117.01,63.348,162.432,53.168,212.433,45.085,221.222,40,233.911,40,248a54.28,54.28,0,0,0,8,28.767V392a24.027,24.027,0,0,1-24,24H16a8,8,0,0,0-8,8v4c0,15.7,10.856,33.046,29.042,46.391a114.692,114.692,0,0,0,124.342,6.249c14.036-8.127,25.136-18.628,31.811-29.982a157.666,157.666,0,0,0,125.624-.006C332.488,473.809,366.227,496,408,496a113.836,113.836,0,0,0,66.959-21.609C493.144,461.046,504,443.7,504,428v-4A8,8,0,0,0,496,416ZM427.107,216.686A18.067,18.067,0,0,1,432,216c13.233,0,24,14.355,24,32s-10.767,32-24,32c-.194,0-.387-.016-.581-.023q.569-8.076.581-16.27A225.892,225.892,0,0,0,427.107,216.686ZM135.146,96.167C169.183,65.106,212.1,48,256,48c56.685,0,110.191,27.992,146.8,76.8,1.146,1.527,2.243,3.18,3.4,4.93.619.933,1.239,1.866,1.87,2.789a8,8,0,0,0,6.6,3.481h39.965a23.883,23.883,0,0,1-21.9,15.9,8,8,0,0,0-6.989,11.4,232.629,232.629,0,0,1,13.8,37.569,33.285,33.285,0,0,0-16.345.308,216.529,216.529,0,0,0-8.865-24.809,40.4,40.4,0,0,0-38.9-24.581c-3.822.14-7.676.211-11.454.211-40.939,0-80.212-6.932-110.582-19.52-29.358-12.168-48.445-28.768-53.745-46.743A8,8,0,0,0,188.7,80.713C156.31,95.386,129.04,120,109.836,151.887A203.629,203.629,0,0,0,88.58,201.12,33.965,33.965,0,0,0,80,200a33.624,33.624,0,0,0-7.658.892C83.455,160.054,105.383,123.329,135.146,96.167ZM80.581,279.977c-.194.006-.387.023-.581.023-13.234,0-24-14.355-24-32s10.766-32,24-32a18.04,18.04,0,0,1,4.77.65A231.583,231.583,0,0,0,80,263.707Q80,271.9,80.581,279.977ZM104,480c-42.763,0-75.615-27.686-79.595-48A40.045,40.045,0,0,0,64,392V291.98A34.2,34.2,0,0,0,80,296c.758,0,1.514-.038,2.269-.089,5.806,41,22.665,78.827,48.917,108.828a178.6,178.6,0,0,0,47.64,38.832C164.908,466.476,130.9,480,104,480ZM96,263.707c0-37.831,9.524-73.643,27.543-103.566,15.99-26.554,38.053-47.552,64.147-61.15,9.245,19.288,29.63,35.848,59.6,48.27C279.559,160.635,321.007,168,364,168c3.973,0,8.023-.075,12.04-.222a24.5,24.5,0,0,1,23.6,14.889A204.671,204.671,0,0,1,416,263.707c0,101.458-71.775,184-160,184S96,365.165,96,263.707ZM408,480c-34.739,0-63.364-18.117-74.788-36.45a178.617,178.617,0,0,0,47.6-38.811c26.252-30,43.111-67.827,48.917-108.828.755.051,1.511.089,2.269.089a34.2,34.2,0,0,0,16-4.02V392a40.045,40.045,0,0,0,39.6,40C483.615,452.314,450.764,480,408,480Z"/><path d="M152,231.707a8,8,0,0,0,8-8,24.027,24.027,0,0,1,24-24,8,8,0,0,0,0-16,40.045,40.045,0,0,0-40,40A8,8,0,0,0,152,231.707Z"/><path d="M328,200a24.027,24.027,0,0,1,24,24,8,8,0,0,0,16,0,40.045,40.045,0,0,0-40-40,8,8,0,0,0,0,16Z"/><path d="M248,264h16a8,8,0,0,0,0-16h-6.556l6.447-38.685a8,8,0,0,0-15.782-2.63l-8,48A8,8,0,0,0,248,264Z"/><path d="M308.024,281.085a8,8,0,0,0-10.938,2.891C285.35,304.143,273.83,312,256,312s-29.349-7.857-41.085-28.024a8,8,0,0,0-13.83,8.048C210.833,308.774,225.885,328,256,328c12.952,0,23.889-3.4,33.436-10.406,7.853-5.761,14.678-13.886,21.478-25.57A8,8,0,0,0,308.024,281.085Z"/><circle cx="192" cy="232" r="16"/><circle cx="320" cy="232" r="16"/></svg>
