<?xml version="1.0"?>
<svg xmlns="http://www.w3.org/2000/svg" id="Filled" viewBox="0 0 512 512" width="512" height="512"><path d="M256,40C145.543,40,56,124.288,56,248v16H456V248C456,124.288,366.457,40,256,40Z" style="fill:#a32d1e"/><path d="M432,224H400v40c0,22.091,14.327,40,32,40s32-17.909,32-40S449.673,224,432,224Z" style="fill:#e6bfa5"/><path d="M112,224H80c-17.673,0-32,17.909-32,40s14.327,40,32,40,32-17.909,32-40V224Z" style="fill:#e6bfa5"/><path d="M416,224c-23.268-5.828-37.113-76.731-40-80-18.691,14.89-52.11,24-88,24H224c-35.89,0-69.309-9.11-88-24-2.887,3.269-16.732,74.172-40,80-5.009,18.2-8,35.615-8,55.707C88,385.746,163.216,472,256,472s168-86.254,168-192.293C424,259.615,421.009,242.2,416,224Z" style="fill:#e6cbb8"/><ellipse cx="152" cy="280" rx="24" ry="16" style="fill:#e6b7a5"/><ellipse cx="360" cy="280" rx="24" ry="16" style="fill:#e6b7a5"/><path d="M152,248a8,8,0,0,0,8-8,24.028,24.028,0,0,1,24-24,8,8,0,0,0,0-16,40.045,40.045,0,0,0-40,40A8,8,0,0,0,152,248Z"/><path d="M328,200a8,8,0,0,0,0,16,24.028,24.028,0,0,1,24,24,8,8,0,0,0,16,0A40.045,40.045,0,0,0,328,200Z"/><path d="M248,280h16a8,8,0,0,0,0-16h-6.557l6.449-38.685a8,8,0,0,0-15.784-2.63l-8,48A8,8,0,0,0,248,280Z"/><path d="M168,280H152a8,8,0,0,0,0,16h16a8,8,0,0,0,0-16Z"/><path d="M360,280H344a8,8,0,0,0,0,16h16a8,8,0,0,0,0-16Z"/><path d="M463.647,234.694c-.055-1.069-.1-2.141-.171-3.206-3.644-56.875-26.87-108.161-65.4-144.411C360.327,51.561,309.869,32,256,32S151.673,51.561,113.923,87.077c-38.528,36.25-61.755,87.536-65.4,144.414-.067,1.062-.115,2.134-.17,3.2A54.145,54.145,0,0,0,40,264c0,26.468,17.944,48,40,48,.764,0,1.526-.038,2.286-.089C95.863,407.1,168.585,480,256,480s160.137-72.9,173.714-168.089c.76.051,1.522.089,2.286.089,22.056,0,40-21.532,40-48A54.143,54.143,0,0,0,463.647,234.694ZM124.887,98.73C159.658,66.017,206.222,48,256,48s96.342,18.017,131.113,50.73c32.538,30.614,53.251,72.994,59.132,120.427A34,34,0,0,0,432,216H417.21c-2.782-1.1-8.749-5.565-16.448-23.235-5.863-13.455-10.36-29.136-13.335-39.512-2.945-10.266-3.631-12.51-5.43-14.548a8,8,0,0,0-10.981-.962C353.782,151.472,321.973,160,288,160H224c-33.973,0-65.782-8.528-83.016-22.257a8,8,0,0,0-10.981.962c-1.8,2.038-2.485,4.282-5.43,14.548-2.975,10.376-7.472,26.057-13.335,39.512C103.539,210.435,97.572,214.9,94.79,216H80a33.993,33.993,0,0,0-14.245,3.157C71.637,171.722,92.35,129.343,124.887,98.73ZM80,296c-13.233,0-24-14.355-24-32s10.767-32,24-32h5.7A202.54,202.54,0,0,0,80,279.707q0,8.217.583,16.27C80.389,295.983,80.195,296,80,296ZM256,464c-88.225,0-160-82.674-160-184.293a191.293,191.293,0,0,1,6.683-49.733c17.762-9.033,28.519-41.795,37.271-72.311.1-.353.2-.712.307-1.071C160.972,168.864,191.289,176,224,176h64c32.711,0,63.028-7.136,83.739-19.408.1.359.205.718.307,1.071,8.752,30.516,19.509,63.278,37.271,72.311A191.293,191.293,0,0,1,416,279.707C416,381.326,344.225,464,256,464ZM432,296c-.195,0-.389-.017-.583-.023q.572-8.052.583-16.27A202.54,202.54,0,0,0,426.3,232H432c13.233,0,24,14.355,24,32S445.233,296,432,296Z"/><circle cx="192" cy="248" r="16"/><circle cx="320" cy="248" r="16"/><path d="M290.258,314.43C283.421,321.478,274.54,328,256,328s-27.421-6.522-34.258-13.57a8,8,0,0,0-11.484,11.14C222.621,338.316,236.729,344,256,344s33.379-5.684,45.742-18.43a8,8,0,1,0-11.484-11.14Z"/></svg>
