<?xml version="1.0"?>
<svg xmlns="http://www.w3.org/2000/svg" id="Filled" viewBox="0 0 512 512" width="512" height="512"><path d="M256,48C152.782,48,56,136,56,248V400l72,48V392H456V272C456,148.288,366.457,48,256,48Z" style="fill:#a32d1e"/><path d="M104,296H88c-17.673,0-32-17.909-32-40s14.327-40,32-40h16Z" style="fill:#e6bfa5"/><ellipse cx="256" cy="272" rx="168" ry="192" style="fill:#e6cbb8"/><ellipse cx="160" cy="272" rx="24" ry="16" style="fill:#e6b7a5"/><ellipse cx="352" cy="272" rx="24" ry="16" style="fill:#e6b7a5"/><path d="M56.033,272c.3-8.109-.154-16.117,0-24,2.2-112.913,96.774-200,199.983-200C366.464,48,456,148.288,456,272V416l-79.994,48V288.309a123.52,123.52,0,0,0-52.679-101.188L216.02,112Z" style="fill:#a32d1e"/><path d="M160,240a8,8,0,0,0,8-8,24.027,24.027,0,0,1,24-24,8,8,0,0,0,0-16,40.045,40.045,0,0,0-40,40A8,8,0,0,0,160,240Z"/><path d="M248,272h16a8,8,0,0,0,0-16h-6.556l6.447-38.685a8,8,0,0,0-15.782-2.63l-8,48A8,8,0,0,0,248,272Z"/><path d="M308.024,289.085a8,8,0,0,0-10.939,2.891C285.349,312.143,273.83,320,256,320s-29.349-7.857-41.085-28.024a8,8,0,0,0-13.83,8.048C210.833,316.774,225.885,336,256,336c12.952,0,23.889-3.4,33.435-10.406,7.854-5.761,14.679-13.886,21.48-25.57A8,8,0,0,0,308.024,289.085Z"/><circle cx="200" cy="240" r="16"/><circle cx="312" cy="240" r="16"/><path d="M403.394,108.28C364.083,64.249,311.744,40,256.016,40c-52.09,0-104.378,21.843-143.454,59.929-40.524,39.5-63.44,92.026-64.528,147.914-.071,3.642-.016,7.311.036,10.86.063,4.278.128,8.7-.032,13,0,.1.012.2.012.3H48V400a8,8,0,0,0,3.562,6.656l72,48A8,8,0,0,0,136,448V418.313C168.676,452.984,211.023,472,256,472c41.414,0,80.562-16.091,112.006-45.68V464a8,8,0,0,0,12.117,6.86l79.993-48A8,8,0,0,0,464,416V272C464,210.2,442.476,152.056,403.394,108.28ZM80.447,286.323c-5.456-2.451-10.171-7.487-13.156-14.267l13.083-13.085Q80.005,265.475,80,272,80,279.2,80.447,286.323ZM64,395.719V294.454a36.7,36.7,0,0,0,18.169,9.038C87.027,338.6,99.985,371.4,120,398.99v34.062ZM256,456c-88.224,0-160-82.542-160-184a212.939,212.939,0,0,1,2.26-30.917L216.931,122.4l101.808,71.272a115.608,115.608,0,0,1,49.267,94.634V403.348C337.907,437.31,298.2,456,256,456Zm192-44.529-63.994,38.4V288.309a131.62,131.62,0,0,0-56.091-107.741L220.607,105.446a8,8,0,0,0-10.245.9L64,252.715c-.006-1.532,0-3.047.029-4.56,1.006-51.656,22.207-100.228,59.7-136.768C159.844,76.188,208.061,56,256.016,56,361.876,56,448,152.9,448,272Z"/></svg>
