<?xml version="1.0"?>
<svg xmlns="http://www.w3.org/2000/svg" id="Filled" viewBox="0 0 512 512" width="512" height="512"><path d="M56,264C56,140.288,145.543,40,256,40S456,140.288,456,264Z" style="fill:#aa9b8b"/><ellipse cx="80" cy="264" rx="32" ry="40" style="fill:#fedac5"/><ellipse cx="432" cy="264" rx="32" ry="40" style="fill:#fedac5"/><path d="M256,104s-16,56-96,56a104.957,104.957,0,0,1-31.752-4.909C103.173,188.633,88,232.133,88,279.707,88,385.746,163.216,472,256,472s168-86.254,168-192.293c0-47.574-15.173-91.074-40.248-124.616A104.957,104.957,0,0,1,352,160c-34.552,0-96-24-96-56" style="fill:#fee8d6"/><ellipse cx="152" cy="280" rx="24" ry="16" style="fill:#fed4c5"/><ellipse cx="360" cy="280" rx="24" ry="16" style="fill:#fed4c5"/><path d="M152,248a8,8,0,0,0,8-8,24.028,24.028,0,0,1,24-24,8,8,0,0,0,0-16,40.045,40.045,0,0,0-40,40A8,8,0,0,0,152,248Z"/><path d="M328,200a8,8,0,0,0,0,16,24.028,24.028,0,0,1,24,24,8,8,0,0,0,16,0A40.045,40.045,0,0,0,328,200Z"/><path d="M248,280h16a8,8,0,0,0,0-16h-6.557l6.449-38.685a8,8,0,0,0-15.784-2.63l-8,48A8,8,0,0,0,248,280Z"/><circle cx="192" cy="248" r="16"/><circle cx="320" cy="248" r="16"/><path d="M290.258,314.43C283.421,321.478,274.54,328,256,328s-27.421-6.522-34.258-13.57a8,8,0,0,0-11.484,11.14C222.621,338.316,236.729,344,256,344s33.379-5.684,45.742-18.43a8,8,0,1,0-11.484-11.14Z"/><path d="M393.8,90.2C355.778,52.668,306.841,32,256,32c-51.093,0-100.214,20.849-138.313,58.705-37.087,36.85-61.092,87.1-67.761,141.7A53.617,53.617,0,0,0,40,264c0,26.468,17.944,48,40,48,.764,0,1.526-.038,2.286-.089C95.863,407.1,168.585,480,256,480s160.137-72.9,173.714-168.089c.76.051,1.522.089,2.286.089,22.056,0,40-21.532,40-48a53.623,53.623,0,0,0-9.916-31.582C455.389,177.558,431.154,127.066,393.8,90.2ZM256,48c46.606,0,91.553,19.029,126.56,53.583,31.079,30.677,52.41,71.563,61.075,116.494a33.483,33.483,0,0,0-20.482-.88,208.774,208.774,0,0,0-32.994-66.9,8,8,0,0,0-8.825-2.836A96.891,96.891,0,0,1,352,152c-72.523,0-87.695-48.14-88.318-50.234a7.99,7.99,0,0,0-7.646-5.745h-.042a8.026,8.026,0,0,0-7.675,5.742C247.71,103.813,232.559,152,160,152a96.891,96.891,0,0,1-29.334-4.535,8,8,0,0,0-8.825,2.836,208.774,208.774,0,0,0-32.994,66.9,33.485,33.485,0,0,0-20.488.882C87.243,119.922,165.18,48,256,48ZM80,296c-13.233,0-24-14.355-24-32s10.767-32,24-32a18.055,18.055,0,0,1,4.95.7,225.654,225.654,0,0,0-4.95,47q0,8.217.583,16.27C80.389,295.983,80.195,296,80,296ZM256,464c-88.225,0-160-82.674-160-184.293,0-41.992,12.547-82.733,35.431-115.372A112.909,112.909,0,0,0,160,168c44.064,0,69.814-16.5,83.657-30.343A88.937,88.937,0,0,0,256,122.23a88.937,88.937,0,0,0,12.343,15.427C282.186,151.5,307.936,168,352,168a112.909,112.909,0,0,0,28.569-3.665C403.453,196.974,416,237.715,416,279.707,416,381.326,344.225,464,256,464ZM432,296c-.195,0-.389-.017-.583-.023q.572-8.052.583-16.27a225.654,225.654,0,0,0-4.95-47A18.055,18.055,0,0,1,432,232c13.233,0,24,14.355,24,32S445.233,296,432,296Z"/></svg>
