<svg id="Filled" height="512" viewBox="0 0 512 512" width="512" xmlns="http://www.w3.org/2000/svg"><g fill="#ceae30"><path d="m248 40h16a160 160 0 0 1 160 160v48a0 0 0 0 1 0 0h-336a0 0 0 0 1 0 0v-48a160 160 0 0 1 160-160z"/><path d="m480 353a23.929 23.929 0 0 0 -16-22.53v-2.94a24 24 0 1 0 -16 0v2.94a23.863 23.863 0 0 0 0 45.06v2.94a23.863 23.863 0 0 0 0 45.06v1.47l-16 48h48l-16-48v-1.47a23.863 23.863 0 0 0 0-45.06v-2.94a23.929 23.929 0 0 0 16-22.53z"/><path d="m80 353a23.929 23.929 0 0 0 -16-22.53v-2.94a24 24 0 1 0 -16 0v2.94a23.863 23.863 0 0 0 0 45.06v2.94a23.863 23.863 0 0 0 0 45.06v1.47l-16 48h48l-16-48v-1.47a23.863 23.863 0 0 0 0-45.06v-2.94a23.929 23.929 0 0 0 16-22.53z"/></g><ellipse cx="80" cy="256" fill="#fedac5" rx="32" ry="40"/><ellipse cx="432" cy="256" fill="#fedac5" rx="32" ry="40"/><path d="m416 208c-65.649-36.825-121.914-79.58-160-128-38.086 48.421-94.351 91.176-160 128-6.424 20.349-8 41.12-8 64 0 106.039 75.216 192 168 192s168-85.961 168-192c0-22.88-1.576-43.651-8-64z" fill="#fee8d6"/><ellipse cx="152" cy="272" fill="#fed4c5" rx="24" ry="16"/><ellipse cx="360" cy="272" fill="#fed4c5" rx="24" ry="16"/><path d="m308.024 289.085a8 8 0 0 0 -10.939 2.891c-11.736 20.167-23.255 28.024-41.085 28.024s-29.349-7.857-41.085-28.024a8 8 0 0 0 -13.83 8.048c9.748 16.75 24.8 35.976 54.915 35.976 12.952 0 23.889-3.4 33.435-10.406 7.854-5.761 14.679-13.886 21.48-25.57a8 8 0 0 0 -2.891-10.939z"/><path d="m152 239.707a8 8 0 0 0 8-8 24.027 24.027 0 0 1 24-24 8 8 0 0 0 0-16 40.045 40.045 0 0 0 -40 40 8 8 0 0 0 8 8z"/><path d="m328 192a8 8 0 0 0 0 16 24.027 24.027 0 0 1 24 24 8 8 0 0 0 16 0 40.045 40.045 0 0 0 -40-40z"/><path d="m248 272h16a8 8 0 0 0 0-16h-6.556l6.447-38.685a8 8 0 0 0 -15.782-2.63l-8 48a8 8 0 0 0 7.891 9.315z"/><circle cx="192" cy="240" r="16"/><circle cx="320" cy="240" r="16"/><path d="m488 304a32.041 32.041 0 0 0 -19.16-29.3 56.075 56.075 0 0 0 3.16-18.7c0-26.467-17.944-48-40-48v-8c0-92.636-75.364-168-168-168h-16c-92.636 0-168 75.364-168 168v8c-22.056 0-40 21.533-40 48a56.075 56.075 0 0 0 3.16 18.7 31.965 31.965 0 0 0 -8.292 53.3 31.934 31.934 0 0 0 0 48 31.949 31.949 0 0 0 3.75 50.847l-14.207 42.623a8 8 0 0 0 7.589 10.53h48a8 8 0 0 0 7.589-10.53l-14.207-42.623a31.949 31.949 0 0 0 3.75-50.847 31.934 31.934 0 0 0 0-48 32.183 32.183 0 0 0 7.562-9.854c7.365 35.611 23.244 68.318 46.492 94.887 33.272 38.025 77.599 58.967 124.814 58.967s91.542-20.942 124.814-58.967c23.248-26.569 39.127-59.276 46.492-94.887a32.183 32.183 0 0 0 7.562 9.854 31.934 31.934 0 0 0 0 48 31.949 31.949 0 0 0 3.75 50.847l-14.207 42.623a8 8 0 0 0 7.589 10.53h48a8 8 0 0 0 7.589-10.53l-14.207-42.623a31.949 31.949 0 0 0 3.75-50.847 31.934 31.934 0 0 0 0-48 31.923 31.923 0 0 0 10.868-24zm-32-48c0 17.645-10.766 32-24 32-.187 0-.373-.016-.559-.022q.548-7.932.559-15.978c0-14.411-.543-30.741-3.7-47.6a18.07 18.07 0 0 1 3.7-.4c13.234 0 24 14.355 24 32zm-208-208h16c83.411 0 151.334 67.536 151.985 150.8-67.585-38.381-119.288-80-153.7-123.743a8 8 0 0 0 -12.576 0c-34.409 43.743-86.109 85.359-153.694 123.743.651-83.264 68.574-150.8 151.985-150.8zm-168 176a18.07 18.07 0 0 1 3.7.4c-3.157 16.859-3.7 33.189-3.7 47.6q0 8.043.559 15.978c-.186.006-.372.022-.559.022-13.234 0-24-14.355-24-32s10.766-32 24-32zm-21.766 208 10.666 32h-25.8l10.666-32zm13.766-32a16 16 0 1 1 -16-16 16.019 16.019 0 0 1 16 16zm0-48a16 16 0 1 1 -16-16 16.019 16.019 0 0 1 16 16zm-32-48a16.017 16.017 0 0 1 10.879-15.144 38.864 38.864 0 0 0 21.073 14.168c.019.325.048.648.048.976a16 16 0 0 1 -32 0zm216 152c-88.224 0-160-82.542-160-184 0-24.7 2.023-42.475 6.722-58.6 66.012-37.354 117.515-77.915 153.278-120.7 35.762 42.787 87.266 83.347 153.278 120.7 4.699 16.125 6.722 33.9 6.722 58.6 0 101.458-71.776 184-160 184zm202.234-24 10.666 32h-25.8l10.666-32zm13.766-32a16 16 0 1 1 -16-16 16.019 16.019 0 0 1 16 16zm0-48a16 16 0 1 1 -16-16 16.019 16.019 0 0 1 16 16zm-32-48c0-.327.021-.651.041-.975a38.853 38.853 0 0 0 21.08-14.169 15.994 15.994 0 1 1 -21.121 15.144z"/></svg>