<svg id="Filled" height="512" viewBox="0 0 512 512" width="512" xmlns="http://www.w3.org/2000/svg"><path d="m368 160v-80h-72v80h-216v80h352v-80z" fill="#a32d1e"/><ellipse cx="80" cy="264" fill="#fedac5" rx="32" ry="40"/><ellipse cx="432" cy="264" fill="#fedac5" rx="32" ry="40"/><path d="m424 280c0 106.039-75.216 192-168 192s-168-85.961-168-192 75.216-216 168-216 168 109.961 168 216z" fill="#fee8d6"/><path d="m365.714 80h-21.714c-29.569-27.584-71.213-40-115.429-40-85.334 0-156.312 63.149-164.571 144h240l32-83.2 8-20.8 8 104h96c0-56-38.825-104-82.286-104z" fill="#a32d1e"/><ellipse cx="152" cy="280" fill="#fed4c5" rx="24" ry="16"/><ellipse cx="360" cy="280" fill="#fed4c5" rx="24" ry="16"/><path d="m152 248a8 8 0 0 0 8-8 24.028 24.028 0 0 1 24-24 8 8 0 0 0 0-16 40.045 40.045 0 0 0 -40 40 8 8 0 0 0 8 8z"/><path d="m328 216a24.028 24.028 0 0 1 24 24 8 8 0 0 0 16 0 40.045 40.045 0 0 0 -40-40 8 8 0 0 0 0 16z"/><path d="m248 280h16a8 8 0 0 0 0-16h-6.557l6.449-38.685a8 8 0 0 0 -15.784-2.63l-8 48a8 8 0 0 0 7.892 9.315z"/><path d="m80 312c.744 0 1.487-.038 2.228-.087 5.772 41.113 22.644 79.047 48.958 109.119 33.272 38.027 77.598 58.968 124.814 58.968s91.542-20.941 124.814-58.968c26.314-30.072 43.191-68.006 48.958-109.119.741.049 1.484.087 2.228.087 22.056 0 40-21.532 40-48 0-23.181-13.765-42.574-32-47.034v-24.966h8a8 8 0 0 0 8-8c0-28.771-9.442-56.467-26.588-77.985-17.224-21.615-40.44-34.015-63.697-34.015h-18.615c-29.406-26.183-70.3-40-118.527-40a176.155 176.155 0 0 0 -116.473 43.674c-31.936 28.085-51.845 66.267-56.059 107.513a8 8 0 0 0 7.959 8.813h8v24.966c-18.235 4.46-32 23.853-32 47.034 0 26.468 17.944 48 40 48zm376-48c0 17.645-10.767 32-24 32-.187 0-.373-.016-.559-.022q.548-7.933.559-15.978a247.173 247.173 0 0 0 -4.7-47.369 18.05 18.05 0 0 1 4.7-.631c13.233 0 24 14.355 24 32zm-32-47.037-.246.061c-2.19-8.429-4.81-16.789-7.84-25.024h8.086zm-58.285-128.963c18.357 0 37.013 10.2 51.183 27.985 13.102 16.443 21.216 37.953 22.812 60.015h-80.3l-6.769-88zm-21.692 96.613a8 8 0 0 0 7.977 7.387h46.793c11.264 28.516 17.207 58.826 17.207 88 0 101.458-71.775 184-160 184s-160-82.542-160-184c0-29.174 5.943-59.484 17.207-88h190.793a8 8 0 0 0 7.467-5.128l27.275-70.916zm-221.357-96.925a160.167 160.167 0 0 1 105.905-39.688c43.171 0 79.676 11.835 105.979 34.286l-36.044 93.714h-225.374c5.557-33.828 22.931-64.917 49.534-88.312zm-26.58 104.312c-3.03 8.235-5.65 16.6-7.84 25.024l-.246-.061v-24.963zm-16.086 40a18.05 18.05 0 0 1 4.7.631 247.173 247.173 0 0 0 -4.7 47.369q0 8.043.559 15.978c-.186.006-.372.022-.559.022-13.233 0-24-14.355-24-32s10.767-32 24-32z"/><circle cx="192" cy="248" r="16"/><circle cx="320" cy="248" r="16"/><path d="m290.258 314.43c-6.837 7.048-15.718 13.57-34.258 13.57s-27.421-6.522-34.258-13.57a8 8 0 0 0 -11.484 11.14c12.363 12.746 26.471 18.43 45.742 18.43s33.379-5.684 45.742-18.43a8 8 0 1 0 -11.484-11.14z"/></svg>