<?xml version="1.0"?>
<svg xmlns="http://www.w3.org/2000/svg" id="Filled" viewBox="0 0 512 512" width="512" height="512"><path d="M280,40c-38.688,0-73.737,17.042-99.609,44.627A48.635,48.635,0,0,0,160,80c-39.765,0-72,50.144-72,112v64H424V200C424,111.634,359.529,40,280,40Z" style="fill:#f1d665"/><circle cx="424" cy="353" r="64" style="fill:#f1d665"/><circle cx="88" cy="353" r="64" style="fill:#f1d665"/><ellipse cx="80" cy="264" rx="32" ry="40" style="fill:#fedac5"/><ellipse cx="432" cy="264" rx="32" ry="40" style="fill:#fedac5"/><path d="M114.813,176H176l16-48,16,48H397.187C414.128,205.976,424,241.66,424,280c0,106.039-75.216,192-168,192S88,386.039,88,280c0-38.34,9.872-74.024,26.813-104h0Z" style="fill:#fee8d6"/><ellipse cx="152" cy="280" rx="24" ry="16" style="fill:#fed4c5"/><ellipse cx="360" cy="280" rx="24" ry="16" style="fill:#fed4c5"/><path d="M464.281,292.3A54.357,54.357,0,0,0,472,264c0-26.467-17.944-48-40-48V200c0-92.636-68.187-168-152-168-37.729,0-73.6,15.3-101.606,43.2A55.37,55.37,0,0,0,160,72c-22.049,0-42.52,12.955-57.642,36.478C87.94,130.906,80,160.568,80,192v24c-22.056,0-40,21.533-40,48a54.36,54.36,0,0,0,7.721,28.3,72.009,72.009,0,0,0,77.371,121.411q2.956,3.732,6.094,7.319C164.458,459.058,208.785,480,256,480s91.542-20.942,124.814-58.967q3.139-3.588,6.1-7.323A72.009,72.009,0,0,0,464.281,292.3ZM456,264c0,17.645-10.767,32-24,32-.187,0-.373-.016-.559-.022q.548-7.932.559-15.978a226.144,226.144,0,0,0-5-47.283,18.051,18.051,0,0,1,5-.717C445.233,232,456,246.355,456,264ZM115.817,117.13C127.894,98.345,143.585,88,160,88a40.762,40.762,0,0,1,17.054,3.9,8,8,0,0,0,9.172-1.8C211.689,62.951,244.993,48,280,48c73.97,0,134.333,66.346,135.961,148.59a209.511,209.511,0,0,0-11.809-24.526A8,8,0,0,0,397.188,168H213.766L199.59,125.47a8,8,0,0,0-15.18,0L170.234,168H114.812a8,8,0,0,0-6.964,4.064A209.624,209.624,0,0,0,96,196.682V192C96,163.6,103.038,137.009,115.817,117.13ZM80,232a18.051,18.051,0,0,1,5,.717A226.144,226.144,0,0,0,80,280q0,8.043.559,15.978c-.186.006-.372.022-.559.022-13.233,0-24-14.355-24-32S66.767,232,80,232Zm8,176A56.01,56.01,0,0,1,58.457,304.411,35.123,35.123,0,0,0,80,312c.744,0,1.487-.038,2.228-.087a212.705,212.705,0,0,0,33.406,88.8A55.765,55.765,0,0,1,88,408Zm168,56c-88.225,0-160-82.542-160-184a204.157,204.157,0,0,1,23.545-96H176a8,8,0,0,0,7.59-5.47L192,153.3l8.41,25.232A8,8,0,0,0,208,184H392.455A204.157,204.157,0,0,1,416,280C416,381.458,344.225,464,256,464Zm168-56a55.728,55.728,0,0,1-27.636-7.284,212.7,212.7,0,0,0,33.408-88.8c.741.049,1.484.087,2.228.087a35.126,35.126,0,0,0,21.544-7.589A56.011,56.011,0,0,1,424,408Z"/><path d="M152,247.707a8,8,0,0,0,8-8,24.027,24.027,0,0,1,24-24,8,8,0,0,0,0-16,40.045,40.045,0,0,0-40,40A8,8,0,0,0,152,247.707Z"/><path d="M328,200a8,8,0,0,0,0,16,24.027,24.027,0,0,1,24,24,8,8,0,0,0,16,0A40.045,40.045,0,0,0,328,200Z"/><path d="M248,280h16a8,8,0,0,0,0-16h-6.557l6.449-38.685a8,8,0,0,0-15.784-2.63l-8,48A8,8,0,0,0,248,280Z"/><path d="M308.024,297.085a8,8,0,0,0-10.938,2.891C285.35,320.143,273.83,328,256,328s-29.35-7.857-41.086-28.024a8,8,0,1,0-13.828,8.048C210.834,324.774,225.885,344,256,344c12.952,0,23.889-3.4,33.436-10.406,7.853-5.761,14.678-13.886,21.478-25.57A8,8,0,0,0,308.024,297.085Z"/><circle cx="192" cy="248" r="16"/><circle cx="320" cy="248" r="16"/></svg>
