<?xml version="1.0"?>
<svg xmlns="http://www.w3.org/2000/svg" id="Filled" viewBox="0 0 512 512" width="512" height="512"><path d="M424,264V200c0-88.366-64.471-160-144-160-38.688,0-73.737,17.042-99.609,44.627A48.635,48.635,0,0,0,160,80c-39.765,0-72,50.144-72,112v72Z" style="fill:#f1d665"/><ellipse cx="80" cy="264" rx="32" ry="40" style="fill:#fedac5"/><path d="M114.813,176H176l16-48,16,48H397.187C414.128,205.976,424,241.66,424,280c0,106.039-75.216,192-168,192S88,386.039,88,280c0-38.34,9.872-74.024,26.813-104h0Z" style="fill:#fee8d6"/><ellipse cx="432" cy="264" rx="32" ry="40" style="fill:#fedac5"/><ellipse cx="152" cy="280" rx="24" ry="16" style="fill:#fed4c5"/><ellipse cx="360" cy="280" rx="24" ry="16" style="fill:#fed4c5"/><path d="M152,248a8,8,0,0,0,8-8,24.028,24.028,0,0,1,24-24,8,8,0,0,0,0-16,40.045,40.045,0,0,0-40,40A8,8,0,0,0,152,248Z"/><path d="M328,200a8,8,0,0,0,0,16,24.028,24.028,0,0,1,24,24,8,8,0,0,0,16,0A40.045,40.045,0,0,0,328,200Z"/><path d="M248,280h16a8,8,0,0,0,0-16h-6.557l6.449-38.685a8,8,0,0,0-15.784-2.63l-8,48A8,8,0,0,0,248,280Z"/><path d="M432,216V200c0-92.636-68.187-168-152-168-37.729,0-73.6,15.3-101.606,43.2A55.379,55.379,0,0,0,160,72c-22.049,0-42.52,12.955-57.642,36.479C87.94,130.906,80,160.568,80,192v24c-22.056,0-40,21.532-40,48s17.944,48,40,48c.744,0,1.487-.038,2.228-.087,5.767,41.113,22.644,79.046,48.958,109.119C164.458,459.059,208.785,480,256,480s91.542-20.941,124.814-58.968c26.314-30.073,43.191-68.006,48.958-109.119.741.049,1.484.087,2.228.087,22.056,0,40-21.532,40-48S454.056,216,432,216ZM115.817,117.13C127.894,98.346,143.585,88,160,88a40.777,40.777,0,0,1,17.055,3.9,8,8,0,0,0,9.171-1.8C211.69,62.951,244.993,48,280,48c73.97,0,134.333,66.346,135.961,148.591a209.6,209.6,0,0,0-11.809-24.527A8,8,0,0,0,397.188,168H213.766L199.59,125.47a8,8,0,0,0-15.18,0L170.234,168H114.778a8.007,8.007,0,0,0-7.008,4.2A209.529,209.529,0,0,0,96,196.686V192C96,163.6,103.038,137.01,115.817,117.13ZM80,296c-13.233,0-24-14.355-24-32s10.767-32,24-32a18.044,18.044,0,0,1,5,.717A226.136,226.136,0,0,0,80,280q0,8.043.559,15.978C80.373,295.984,80.187,296,80,296ZM256,464c-88.225,0-160-82.542-160-184a204.16,204.16,0,0,1,23.545-96h56.476a8.009,8.009,0,0,0,7.627-5.646L192,153.3l8.41,25.232A8,8,0,0,0,208,184H392.455A204.16,204.16,0,0,1,416,280C416,381.458,344.225,464,256,464ZM432,296c-.187,0-.373-.016-.559-.022q.548-7.933.559-15.978a226.077,226.077,0,0,0-5-47.283,18.069,18.069,0,0,1,5-.717c13.233,0,24,14.355,24,32S445.233,296,432,296Z"/><circle cx="192" cy="248" r="16"/><circle cx="320" cy="248" r="16"/><path d="M290.258,314.43C283.421,321.478,274.54,328,256,328s-27.421-6.522-34.258-13.57a8,8,0,0,0-11.484,11.14C222.621,338.316,236.729,344,256,344s33.379-5.684,45.742-18.43a8,8,0,1,0-11.484-11.14Z"/></svg>
