<?xml version="1.0"?>
<svg xmlns="http://www.w3.org/2000/svg" id="Filled" viewBox="0 0 512 512" width="512" height="512"><path d="M433,168.9c17.2-.54,39-14.568,39-31.9H414.677c-1.825-2.668-3.547-5.431-5.475-8C372.514,80.088,317.5,49,256,49,150.352,49,63.9,140.765,56.564,257H56v96a96,96,0,0,0,96,96H360a96,96,0,0,0,96-96V257h-.556A243.49,243.49,0,0,0,433,168.9Z" style="fill:#cf7644"/><ellipse cx="80" cy="256" rx="32" ry="40" style="fill:#dda37b"/><ellipse cx="432" cy="256" rx="32" ry="40" style="fill:#dda37b"/><path d="M364,169.057c-86.2,0-159.521-29.7-172-72.057C129.839,125.183,88,191.718,88,272.847,88,378.97,163.216,465,256,465s168-86.03,168-192.153a214.09,214.09,0,0,0-17-84.256,32.547,32.547,0,0,0-31.248-19.75Q369.927,169.054,364,169.057Z" style="fill:#e1b293"/><ellipse cx="152" cy="272" rx="24" ry="16" style="fill:#dd9c7b"/><ellipse cx="360" cy="272" rx="24" ry="16" style="fill:#dd9c7b"/><path d="M480,136a8,8,0,0,0-8-8H418.951c-1.055-1.584-2.15-3.2-3.35-4.8C375.94,70.324,317.769,40,256,40c-48.049,0-94.975,18.684-132.133,52.61C87.9,125.445,62.635,171.025,52.537,221.15,44.826,229.906,40,242.285,40,256a54.28,54.28,0,0,0,8,28.767V352A104.118,104.118,0,0,0,152,456h34.8a157.636,157.636,0,0,0,138.4,0H360A104.118,104.118,0,0,0,464,352V284.766A54.274,54.274,0,0,0,472,256c0-13.859-4.926-26.358-12.781-35.128a256.148,256.148,0,0,0-14.689-46.75C462.745,169.073,480,153.933,480,136ZM134.655,104.426C168.858,73.2,211.953,56,256,56c56.685,0,110.191,27.992,146.8,76.8,1.146,1.527,2.242,3.18,3.4,4.93.619.933,1.239,1.866,1.87,2.789a8,8,0,0,0,6.6,3.481h46.881c-5.283,8.707-18.155,15.569-28.812,15.9a8,8,0,0,0-6.989,11.4,244.706,244.706,0,0,1,14.039,37.62,33.354,33.354,0,0,0-16.607.265,217.012,217.012,0,0,0-8.839-24.742,40.406,40.406,0,0,0-38.9-24.6c-3.831.14-7.684.212-11.454.212-40.938,0-80.21-6.938-110.58-19.536-29.358-12.177-48.446-28.792-53.746-46.783A8,8,0,0,0,188.7,88.714c-32.389,14.685-59.659,39.316-78.862,71.23a203.8,203.8,0,0,0-21.23,49.183A33.979,33.979,0,0,0,80,208a33.608,33.608,0,0,0-8.164,1.008C82.949,168.275,104.871,131.619,134.655,104.426ZM432,288c-.19,0-.38-.016-.57-.022q.558-8.008.57-16.131a226.188,226.188,0,0,0-4.914-47.154A18.019,18.019,0,0,1,432,224c13.233,0,24,14.355,24,32S445.233,288,432,288Zm-351.43-.022c-.19.006-.38.022-.57.022-13.234,0-24-14.355-24-32s10.766-32,24-32a18.023,18.023,0,0,1,4.79.656A231.941,231.941,0,0,0,80,271.847Q80,279.967,80.57,287.978ZM152,440a88.1,88.1,0,0,1-88-88V299.98A34.2,34.2,0,0,0,80,304c.75,0,1.5-.038,2.246-.088,5.784,41.1,22.652,79.01,48.938,109.073A184.172,184.172,0,0,0,160.42,440ZM96,271.847c0-37.863,9.525-73.7,27.544-103.654,15.991-26.575,38.051-47.589,64.145-61.2,9.244,19.3,29.63,35.876,59.6,48.307,32.268,13.385,73.716,20.757,116.71,20.757,3.964,0,8.015-.075,12.04-.223a24.457,24.457,0,0,1,23.6,14.9A204.978,204.978,0,0,1,416,271.847C416,373.389,344.225,456,256,456S96,373.389,96,271.847ZM360,440h-8.42a184.172,184.172,0,0,0,29.236-27.015c26.285-30.063,43.153-67.978,48.938-109.073.747.05,1.5.088,2.246.088a34.2,34.2,0,0,0,16-4.02V352A88.1,88.1,0,0,1,360,440Z"/><path d="M308.023,289.085a8,8,0,0,0-10.938,2.891C285.348,312.143,273.828,320,256,320s-29.349-7.857-41.086-28.024a8,8,0,1,0-13.829,8.048C210.832,316.774,225.883,336,256,336c12.952,0,23.888-3.4,33.435-10.406,7.854-5.761,14.679-13.886,21.479-25.57A8,8,0,0,0,308.023,289.085Z"/><path d="M152,239.707a8,8,0,0,0,8-8,24.027,24.027,0,0,1,24-24,8,8,0,0,0,0-16,40.045,40.045,0,0,0-40,40A8,8,0,0,0,152,239.707Z"/><path d="M328,208a24.027,24.027,0,0,1,24,24,8,8,0,0,0,16,0,40.045,40.045,0,0,0-40-40,8,8,0,0,0,0,16Z"/><path d="M248,272h16a8,8,0,0,0,0-16h-6.556l6.447-38.685a8,8,0,0,0-15.782-2.63l-8,48A8,8,0,0,0,248,272Z"/><circle cx="192" cy="240" r="16"/><circle cx="320" cy="240" r="16"/></svg>
