<?xml version="1.0"?>
<svg xmlns="http://www.w3.org/2000/svg" id="Filled" viewBox="0 0 512 512" width="512" height="512"><path d="M485.23,208c-19.67,0-37.733-11.854-44.607-30.284C418.575,118.607,378.326,40,320,40c-24,0-41.617,32-64,32s-40-32-64-32c-58.326,0-98.574,78.607-120.622,137.716C64.5,196.146,46.44,208,26.77,208H16v.993A63.007,63.007,0,0,0,79.007,272H432a64,64,0,0,0,64-64Z" style="fill:#58453f"/><path d="M432,224H400v40c0,22.091,14.327,40,32,40s32-17.909,32-40S449.673,224,432,224Z" style="fill:#dda37b"/><path d="M112,224H80c-17.673,0-32,17.909-32,40s14.327,40,32,40,32-17.909,32-40V224Z" style="fill:#dda37b"/><path d="M424,224C358.351,187.175,294.086,120.42,256,72,217.914,120.421,153.649,187.176,88,224v56c0,106.039,75.216,192,168,192s168-85.961,168-192Z" style="fill:#e1b293"/><ellipse cx="152" cy="280" rx="24" ry="16" style="fill:#dd9c7b"/><ellipse cx="360" cy="280" rx="24" ry="16" style="fill:#dd9c7b"/><path d="M496,200H485.23c-16.6,0-31.516-10.078-37.111-25.079C423.8,109.721,381.831,32,320,32c-14.973,0-27.248,9.629-38.078,18.124C272.825,57.26,264.233,64,256,64s-16.825-6.74-25.922-13.876C219.248,41.629,206.972,32,192,32,130.168,32,88.2,109.721,63.881,174.921,58.286,189.922,43.372,200,26.77,200H16a8,8,0,0,0-8,8v.993A71.176,71.176,0,0,0,40.178,268.45C42.056,292.838,59.2,312,80,312c.744,0,1.487-.038,2.228-.087C88,353.026,104.872,390.96,131.186,421.032,164.458,459.059,208.785,480,256,480s91.542-20.941,124.814-58.968c26.314-30.072,43.19-68.006,48.958-109.119.741.049,1.484.087,2.228.087,20.941,0,38.163-19.413,39.852-44.028A72.237,72.237,0,0,0,504,208,8,8,0,0,0,496,200ZM41.857,249.543A55.193,55.193,0,0,1,24.45,216h2.32c23.247,0,44.185-14.262,52.1-35.487,13.748-36.859,29.1-66.819,45.63-89.046C145.952,62.624,168.661,48,192,48c9.447,0,18.558,7.146,28.2,14.713,6.865,5.385,13.881,10.879,21.6,14.187-39.014,47.622-98.2,106.414-156.648,139.508A33.979,33.979,0,0,0,80,216C62.141,216,46.981,230.119,41.857,249.543ZM80,296c-13.234,0-24-14.355-24-32s10.766-32,24-32v48q0,8.043.559,15.978C80.373,295.984,80.187,296,80,296Zm336-16c0,101.458-71.776,184-160,184S96,381.458,96,280V228.648c72.739-42.122,135.059-113.2,160-143.848,24.942,30.649,87.264,101.728,160,143.848Zm16,16c-.187,0-.373-.016-.559-.022q.548-7.933.559-15.978V232c13.234,0,24,14.355,24,32S445.234,296,432,296Zm38.018-46.9C464.782,229.908,449.723,216,432,216a34.1,34.1,0,0,0-5.173.4C368.387,183.3,309.209,124.519,270.2,76.9c7.718-3.308,14.734-8.8,21.6-14.187C301.443,55.146,310.554,48,320,48c23.338,0,46.047,14.624,67.5,43.467,16.53,22.228,31.883,52.187,45.63,89.046C441.045,201.738,461.983,216,485.23,216h2.192A56.286,56.286,0,0,1,470.018,249.1Z"/><path d="M152,248a8,8,0,0,0,8-8,24.027,24.027,0,0,1,24-24,8,8,0,0,0,0-16,40.045,40.045,0,0,0-40,40A8,8,0,0,0,152,248Z"/><path d="M328,216a24.027,24.027,0,0,1,24,24,8,8,0,0,0,16,0,40.045,40.045,0,0,0-40-40,8,8,0,0,0,0,16Z"/><path d="M248,280h16a8,8,0,0,0,0-16h-6.556l6.447-38.685a8,8,0,1,0-15.782-2.63l-8,48A8,8,0,0,0,248,280Z"/><circle cx="192" cy="248" r="16"/><circle cx="320" cy="248" r="16"/><path d="M290.257,314.43C283.421,321.478,274.54,328,256,328s-27.421-6.522-34.257-13.57a8,8,0,0,0-11.486,11.14C222.621,338.316,236.728,344,256,344s33.379-5.684,45.743-18.43a8,8,0,0,0-11.486-11.14Z"/></svg>
