<?xml version="1.0"?>
<svg xmlns="http://www.w3.org/2000/svg" id="Filled" viewBox="0 0 512 512" width="512" height="512"><path d="M456,264c0-123.712-89.543-216-200-216S56,140.288,56,264L32,456H480Z" style="fill:#351c05"/><path d="M88,272C88,165.961,163.216,80,256,80s168,85.961,168,192Z" style="fill:#fae4d0"/><ellipse cx="80" cy="256" rx="32" ry="40" style="fill:#dda37b"/><ellipse cx="432" cy="256" rx="32" ry="40" style="fill:#dda37b"/><path d="M256,120c-92.784,0-168,68.053-168,152,0,106.039,75.216,192,168,192s168-85.961,168-192C424,188.053,348.784,120,256,120Z" style="fill:#e1b293"/><ellipse cx="152" cy="272" rx="24" ry="16" style="fill:#dd9c7b"/><ellipse cx="360" cy="272" rx="24" ry="16" style="fill:#dd9c7b"/><path d="M152,239.707a8,8,0,0,0,8-8,24.027,24.027,0,0,1,24-24,8,8,0,0,0,0-16,40.045,40.045,0,0,0-40,40A8,8,0,0,0,152,239.707Z"/><path d="M328,208a24.027,24.027,0,0,1,24,24,8,8,0,0,0,16,0,40.045,40.045,0,0,0-40-40,8,8,0,0,0,0,16Z"/><path d="M248,272h16a8,8,0,0,0,0-16h-6.556l6.447-38.685a8,8,0,0,0-15.782-2.63l-8,48A8,8,0,0,0,248,272Z"/><path d="M308.024,289.085a8,8,0,0,0-10.939,2.891C285.349,312.143,273.83,320,256,320s-29.349-7.857-41.085-28.024a8,8,0,0,0-13.83,8.048C210.833,316.774,225.885,336,256,336c12.952,0,23.889-3.4,33.435-10.406,7.854-5.761,14.679-13.886,21.48-25.57A8,8,0,0,0,308.024,289.085Z"/><circle cx="192" cy="240" r="16"/><circle cx="320" cy="240" r="16"/><path d="M487.938,455.008,466.177,280.916A55.042,55.042,0,0,0,472,256a53.151,53.151,0,0,0-11.372-33.477c-8.474-51.26-33.19-97.552-69.771-130.542a200.924,200.924,0,0,0-269.714,0c-36.581,32.99-61.3,79.282-69.771,130.542A53.151,53.151,0,0,0,40,256a55.042,55.042,0,0,0,5.823,24.916L24.062,455.008A8,8,0,0,0,32,464H206v-.147a157.534,157.534,0,0,0,100.5-.165V464H480a8,8,0,0,0,7.938-8.992ZM424.459,225.647A18.221,18.221,0,0,1,432,224c13.234,0,24,14.355,24,32s-10.766,32-24,32c-.187,0-.373-.016-.559-.022q.548-7.932.559-15.978A146.111,146.111,0,0,0,424.459,225.647Zm-292.6-121.784a184.925,184.925,0,0,1,248.284,0c30.134,27.176,51.6,64.175,61.533,105.565A33.648,33.648,0,0,0,432,208a34.279,34.279,0,0,0-13.414,2.755C392.087,152.833,329.194,112,256,112S119.913,152.833,93.414,210.755A34.279,34.279,0,0,0,80,208a33.648,33.648,0,0,0-9.675,1.428C80.26,168.038,101.724,131.039,131.858,103.863ZM80,272q0,8.043.559,15.978c-.186.006-.372.022-.559.022-13.234,0-24-14.355-24-32s10.766-32,24-32a18.221,18.221,0,0,1,7.541,1.647A146.111,146.111,0,0,0,80,272ZM41.062,448,59.88,297.459A34.846,34.846,0,0,0,80,304c.744,0,1.487-.038,2.228-.087,5.768,41.113,22.644,79.047,48.958,109.12A180.486,180.486,0,0,0,172.213,448ZM96,272c0-79.4,71.776-144,160-144s160,64.6,160,144c0,101.458-71.776,184-160,184S96,373.458,96,272ZM339.787,448a180.486,180.486,0,0,0,41.027-34.967c26.314-30.073,43.19-68.007,48.958-109.12.741.049,1.484.087,2.228.087a34.846,34.846,0,0,0,20.12-6.541L470.938,448Z"/></svg>
