<?xml version="1.0"?>
<svg xmlns="http://www.w3.org/2000/svg" id="Filled" viewBox="0 0 512 512" width="512" height="512"><path d="M160,96H352a80,80,0,0,1,80,80v64a0,0,0,0,1,0,0H80a0,0,0,0,1,0,0V176A80,80,0,0,1,160,96Z" style="fill:#f9bb2a"/><ellipse cx="80" cy="264" rx="32" ry="40" style="fill:#fedac5"/><ellipse cx="432" cy="264" rx="32" ry="40" style="fill:#fedac5"/><path d="M424,279.707C424,385.746,348.784,472,256,472S88,385.746,88,279.707s75.216-192,168-192S424,173.668,424,279.707Z" style="fill:#fee8d6"/><ellipse cx="152" cy="280" rx="24" ry="16" style="fill:#fed4c5"/><ellipse cx="360" cy="280" rx="24" ry="16" style="fill:#fed4c5"/><path d="M368,96a48,48,0,0,0,48-48V40H256c-61.856,0-112,25.072-112,56s50.144,56,112,56H400a48.141,48.141,0,0,0,48-48V96Z" style="fill:#eca518"/><path d="M152,248a8,8,0,0,0,8-8,24.027,24.027,0,0,1,24-24,8,8,0,0,0,0-16,40.045,40.045,0,0,0-40,40A8,8,0,0,0,152,248Z"/><path d="M328,216a24.027,24.027,0,0,1,24,24,8,8,0,0,0,16,0,40.045,40.045,0,0,0-40-40,8,8,0,0,0,0,16Z"/><path d="M248,280h16a8,8,0,0,0,0-16h-6.556l6.447-38.685a8,8,0,1,0-15.782-2.63l-8,48A8,8,0,0,0,248,280Z"/><path d="M440,216.966V176a87.543,87.543,0,0,0-4.734-28.54A55.909,55.909,0,0,0,456,104V96a8,8,0,0,0-8-8H407.154A55.833,55.833,0,0,0,424,48V40a8,8,0,0,0-8-8H256c-64.289,0-115.265,25.662-119.684,59.248A88.27,88.27,0,0,0,72,176v40.966C53.764,221.426,40,240.819,40,264c0,26.468,17.944,48,40,48,.764,0,1.526-.038,2.286-.089C95.863,407.1,168.585,480,256,480s160.137-72.9,173.714-168.089c.76.051,1.522.089,2.286.089,22.056,0,40-21.532,40-48C472,240.819,458.236,221.426,440,216.966ZM424,176v40.963c-.268.065-.532.149-.8.221A210.425,210.425,0,0,0,397.008,160H400a55.668,55.668,0,0,0,21.124-4.15A71.8,71.8,0,0,1,424,176ZM180.382,63.558C200.446,53.525,227.3,48,256,48H408a40.045,40.045,0,0,1-40,40,8,8,0,0,0,0,16h72a40.045,40.045,0,0,1-40,40H256c-28.7,0-55.554-5.525-75.618-15.558C162.345,119.424,152,107.6,152,96S162.345,72.576,180.382,63.558Zm-42.534,43.93a46.112,46.112,0,0,0,8.878,15.412c-27.223,24.534-47.192,57.473-57.872,94.3-.285-.077-.567-.166-.854-.236V176A72.236,72.236,0,0,1,137.848,107.488ZM80,296c-13.234,0-24-14.355-24-32s10.766-32,24-32a18.055,18.055,0,0,1,4.95.7,225.488,225.488,0,0,0-4.95,47q0,8.217.583,16.27C80.389,295.983,80.195,296,80,296ZM256,464c-88.224,0-160-82.674-160-184.293,0-57.262,23.251-111.129,62.559-145.9C180.173,149.78,215.434,160,256,160H377.49C402.35,193.33,416,235.674,416,279.707,416,381.326,344.224,464,256,464ZM432,296c-.195,0-.389-.017-.583-.023q.572-8.052.583-16.27a226.39,226.39,0,0,0-4.927-47.011A18.043,18.043,0,0,1,432,232c13.234,0,24,14.355,24,32S445.234,296,432,296Z"/><circle cx="192" cy="248" r="16"/><circle cx="320" cy="248" r="16"/><path d="M290.257,314.43C283.421,321.478,274.54,328,256,328s-27.421-6.522-34.257-13.57a8,8,0,0,0-11.486,11.14C222.621,338.316,236.728,344,256,344s33.379-5.684,45.743-18.43a8,8,0,0,0-11.486-11.14Z"/></svg>
