<?xml version="1.0"?>
<svg xmlns="http://www.w3.org/2000/svg" id="Filled" viewBox="0 0 512 512" width="512" height="512"><ellipse cx="256" cy="272" rx="168" ry="192" style="fill:#a36f58"/><ellipse cx="152" cy="272" rx="24" ry="16" style="fill:#a25e3c"/><ellipse cx="360" cy="272" rx="24" ry="16" style="fill:#a25e3c"/><path d="M104,272c0-97.2,68.053-176,152-176s152,78.8,152,176c0,38.915-13.532,66.86-32,96h56c14.58-31.085,24-58.45,24-96,0-102.94-63.567-224-152-224-8,0-48,16-48,16s-40-16-48-16C117.888,48,56,167.266,56,272c0,37.55,9.42,64.915,24,96h56C117.532,338.86,104,310.915,104,272Z" style="fill:#ceae30"/><path d="M308.024,297.085a8,8,0,0,0-10.938,2.891C285.35,320.143,273.83,328,256,328s-29.35-7.857-41.086-28.024a8,8,0,1,0-13.828,8.048C210.834,324.774,225.885,344,256,344c12.952,0,23.889-3.4,33.436-10.406,7.853-5.761,14.678-13.886,21.478-25.57A8,8,0,0,0,308.024,297.085Z"/><path d="M80,376h25.633c14.929,27.82,35.708,51.229,60.377,67.931C193.131,462.294,224.249,472,256,472c31.65,0,62.685-9.649,89.745-27.9,24.769-16.708,45.636-40.185,60.614-68.1H432a8,8,0,0,0,7.243-4.6C454.527,338.811,464,310.816,464,272c0-52.8-16.469-110.687-44.053-154.841C388.863,67.4,347.686,40,304,40c-7.986,0-34.289,9.969-48,15.391C242.289,49.969,215.986,40,208,40c-44.443,0-85.846,27.166-116.582,76.494C64.231,160.126,48,218.259,48,272c0,38.816,9.473,66.811,24.757,99.4A8,8,0,0,0,80,376Zm256.8,54.833A144.241,144.241,0,0,1,256,456c-28.54,0-56.557-8.755-81.021-25.318-20.264-13.72-37.672-32.465-50.946-54.682H136a8,8,0,0,0,6.757-12.283C123.769,333.756,112,307.962,112,272a192.537,192.537,0,0,1,8.236-56h16.443a48,48,0,1,0,94.642,0h16.568l-7.781,46.685A8,8,0,0,0,248,272h16a8,8,0,0,0,0-16h-6.557l6.449-38.685a8.045,8.045,0,0,0,.1-1.315h16.687a48,48,0,1,0,94.642,0h16.443A192.537,192.537,0,0,1,400,272c0,35.962-11.769,61.756-30.757,91.717A8,8,0,0,0,376,376h11.968C374.645,398.3,357.152,417.1,336.8,430.833ZM328,176a48.014,48.014,0,0,0-41.542,24H225.542a47.953,47.953,0,0,0-83.084,0H125.913c23.153-56.709,72.758-96,130.087-96s106.934,39.291,130.087,96H369.542A48.014,48.014,0,0,0,328,176Zm32,48a32,32,0,1,1-32-32A32.036,32.036,0,0,1,360,224ZM184,192a32,32,0,1,1-32,32A32.036,32.036,0,0,1,184,192Zm-79-67.044C132.705,80.489,169.285,56,207.955,56c4.483.187,26.888,8.154,45.074,15.428a8.008,8.008,0,0,0,5.942,0C277.155,64.154,299.559,56.187,304,56c37.966,0,74.324,24.73,102.378,69.636C432.44,167.354,448,222.07,448,272c0,34.038-8.018,59.342-21.111,88H390.242C405.965,332.991,416,306.494,416,272c0-48.931-16.5-94.985-46.465-129.68C339.282,107.292,298.962,88,256,88s-83.282,19.292-113.535,54.32C112.5,177.015,96,223.069,96,272c0,34.494,10.035,60.991,25.758,88H85.111C72.018,331.342,64,306.038,64,272,64,221.125,79.326,166.155,105,124.956Z"/><circle cx="184" cy="224" r="16"/><circle cx="328" cy="224" r="16"/></svg>
