<?xml version="1.0"?>
<svg xmlns="http://www.w3.org/2000/svg" id="Filled" viewBox="0 0 512 512" width="512" height="512"><path d="M448,264a244.484,244.484,0,0,0-23-104.1c17.2-.54,39-14.568,39-31.9H406.677c-1.825-2.668-3.547-5.431-5.475-8C364.514,71.088,309.5,40,248,40,137.543,40,48,140.288,48,264Z" style="fill:#351c05"/><ellipse cx="72" cy="264" rx="32" ry="40" style="fill:#e6bfa5"/><ellipse cx="424" cy="264" rx="32" ry="40" style="fill:#e6bfa5"/><path d="M356,176.057c-86.2,0-159.521-29.7-172-72.057C121.839,132.183,80,198.718,80,279.847,80,385.97,155.216,472,248,472s168-86.03,168-192.153a214.09,214.09,0,0,0-17-84.256,32.547,32.547,0,0,0-31.248-19.75Q361.927,176.054,356,176.057Z" style="fill:#e6cbb8"/><ellipse cx="352" cy="279.853" rx="24" ry="16.147" style="fill:#e6b7a5"/><ellipse cx="144" cy="279.853" rx="24" ry="16.147" style="fill:#e6b7a5"/><path d="M464,120H410.951c-1.055-1.584-2.15-3.2-3.349-4.8C367.941,62.324,309.769,32,248,32c-50.533,0-99.248,20.447-137.169,57.576C73.478,126.148,49.065,176.368,42.09,230.984c-.056.441-.109.884-.163,1.326-.155.212-.318.414-.47.629A54.187,54.187,0,0,0,32,264c0,26.468,17.944,48,40,48,.75,0,1.5-.038,2.246-.088,5.785,41.1,22.652,79.01,48.938,109.073C156.456,459.042,200.783,480,248,480s91.544-20.958,124.816-59.015c26.286-30.063,43.153-67.978,48.938-109.073.747.05,1.5.088,2.246.088,22.056,0,40-21.532,40-48a53.6,53.6,0,0,0-9.97-31.658l.028,0-.172-1.362a250.737,250.737,0,0,0-17.37-64.851C454.736,161.081,472,145.938,472,128A8,8,0,0,0,464,120ZM72,296c-13.234,0-24-14.355-24-32a38.084,38.084,0,0,1,6.53-21.836C59.088,235.705,65.456,232,72,232a18.023,18.023,0,0,1,4.79.656A231.941,231.941,0,0,0,72,279.847q0,8.12.57,16.131C72.38,295.984,72.19,296,72,296ZM248,464c-88.224,0-160-82.611-160-184.153,0-37.863,9.525-73.7,27.544-103.654,15.991-26.575,38.051-47.589,64.145-61.2,9.244,19.3,29.63,35.876,59.6,48.308,32.268,13.385,73.716,20.756,116.71,20.756,3.978,0,8.029-.076,12.04-.222a24.459,24.459,0,0,1,23.6,14.9A204.982,204.982,0,0,1,408,279.847C408,381.389,336.224,464,248,464ZM424,296c-.19,0-.38-.016-.57-.022q.558-8.008.57-16.131a226.128,226.128,0,0,0-4.915-47.154A18.032,18.032,0,0,1,424,232c13.234,0,24,14.355,24,32S437.234,296,424,296Zm.748-144.1a8,8,0,0,0-6.99,11.4,233.089,233.089,0,0,1,17.835,54.761,33.468,33.468,0,0,0-20.4-.876,216.826,216.826,0,0,0-8.84-24.742,40.34,40.34,0,0,0-38.9-24.6c-3.816.139-7.67.211-11.453.211-40.939,0-80.21-6.938-110.58-19.536-29.358-12.177-48.446-28.792-53.746-46.783A8,8,0,0,0,180.7,96.714c-32.388,14.685-59.658,39.316-78.861,71.23a203.8,203.8,0,0,0-21.23,49.183,33.574,33.574,0,0,0-20.246.948c8.722-45.221,30.3-86.354,61.666-117.066C156.938,66.825,201.677,48,248,48c56.685,0,110.192,27.992,146.8,76.8,1.147,1.528,2.244,3.182,3.406,4.933.618.933,1.237,1.865,1.867,2.786a8,8,0,0,0,6.6,3.482h46.881C448.276,144.706,435.405,151.568,424.748,151.9Z"/><path d="M144,248a8,8,0,0,0,8-8,24.027,24.027,0,0,1,24-24,8,8,0,0,0,0-16,40.045,40.045,0,0,0-40,40A8,8,0,0,0,144,248Z"/><path d="M320,200a8,8,0,0,0,0,16,24.027,24.027,0,0,1,24,24,8,8,0,0,0,16,0A40.045,40.045,0,0,0,320,200Z"/><path d="M240,280h16a8,8,0,0,0,0-16h-6.556l6.447-38.685a8,8,0,1,0-15.782-2.63l-8,48A8,8,0,0,0,240,280Z"/><circle cx="184" cy="248" r="16"/><circle cx="312" cy="248" r="16"/><path d="M282.257,314.43C275.421,321.478,266.54,328,248,328s-27.421-6.522-34.257-13.57a8,8,0,0,0-11.486,11.14C214.621,338.316,228.728,344,248,344s33.379-5.684,45.743-18.43a8,8,0,0,0-11.486-11.14Z"/></svg>
