<?xml version="1.0"?>
<svg xmlns="http://www.w3.org/2000/svg" id="Filled" viewBox="0 0 512 512" width="512" height="512"><ellipse cx="256" cy="89" rx="80" ry="64" style="fill:#dea634"/><path d="M72,257a184,184,0,0,1,368,0Z" style="fill:#f1d665"/><ellipse cx="80" cy="280" rx="32" ry="40" style="fill:#dda37b"/><ellipse cx="432" cy="280" rx="32" ry="40" style="fill:#dda37b"/><path d="M256,488c92.637,0,167.758-85.692,167.994-191.5-.086-38.567-10.126-74.454-27.333-104.5H336l-16-48-16,48H208l-16-48-16,48H115.339c-17.207,30.046-27.247,65.933-27.333,104.5C88.242,402.308,163.363,488,256,488Z" style="fill:#e1b293"/><ellipse cx="152" cy="296" rx="24" ry="16" style="fill:#dd9c7b"/><ellipse cx="360" cy="296" rx="24" ry="16" style="fill:#dd9c7b"/><path d="M308.024,313.085a8,8,0,0,0-10.938,2.891C285.35,336.143,273.83,344,256,344s-29.35-7.857-41.086-28.024a8,8,0,1,0-13.828,8.048C210.834,340.774,225.885,360,256,360c12.952,0,23.889-3.4,33.436-10.406,7.853-5.761,14.678-13.886,21.478-25.57A8,8,0,0,0,308.024,313.085Z"/><path d="M152,264a8,8,0,0,0,8-8,24.027,24.027,0,0,1,24-24,8,8,0,0,0,0-16,40.045,40.045,0,0,0-40,40A8,8,0,0,0,152,264Z"/><path d="M328,216a8,8,0,0,0,0,16,24.027,24.027,0,0,1,24,24,8,8,0,0,0,16,0A40.045,40.045,0,0,0,328,216Z"/><path d="M248,296h16a8,8,0,0,0,0-16h-6.557l6.449-38.685a8,8,0,0,0-15.784-2.63l-8,48A8,8,0,0,0,248,296Z"/><path d="M82.228,327.913c5.768,41.113,22.644,79.047,48.958,109.12C164.458,475.058,208.785,496,256,496s91.542-20.942,124.814-58.967c26.314-30.073,43.19-68.007,48.958-109.12.741.049,1.484.087,2.228.087,22.056,0,40-21.533,40-48,0-20.148-10.4-37.424-25.1-44.531A192.258,192.258,0,0,0,343.931,85.279C342.175,46.835,303.409,16,256,16c-47.443,0-86.231,30.879-87.935,69.362A192.136,192.136,0,0,0,65.1,235.47C50.4,242.578,40,259.854,40,280c0,26.467,17.944,48,40,48C80.744,328,81.487,327.962,82.228,327.913ZM256,480c-88.225,0-160-82.542-160-184a204.157,204.157,0,0,1,23.545-96H176a8,8,0,0,0,7.59-5.47L192,169.3l8.41,25.232A8,8,0,0,0,208,200h96a8,8,0,0,0,7.59-5.47L320,169.3l8.41,25.232A8,8,0,0,0,336,200h56.455A204.157,204.157,0,0,1,416,296C416,397.458,344.225,480,256,480ZM432,312c-.187,0-.373-.016-.559-.022q.548-7.933.559-15.978a226.144,226.144,0,0,0-5-47.283,18.051,18.051,0,0,1,5-.717c13.233,0,24,14.355,24,32S445.233,312,432,312ZM256,32c35.058,0,64.327,19.594,70.7,45.438a192.2,192.2,0,0,0-141.415.081C191.613,51.635,220.906,32,256,32Zm0,48A176.021,176.021,0,0,1,430.376,232.066a33.949,33.949,0,0,0-7.262,1.143,212.466,212.466,0,0,0-18.962-45.145A8,8,0,0,0,397.188,184H341.766L327.59,141.47a8,8,0,0,0-15.18,0L298.234,184H213.766L199.59,141.47a8,8,0,0,0-15.18,0L170.234,184H114.812a8,8,0,0,0-6.964,4.064,212.466,212.466,0,0,0-18.962,45.145,33.979,33.979,0,0,0-7.272-1.144C93.344,145.812,167.573,80,256,80ZM56,280c0-17.645,10.767-32,24-32a18.051,18.051,0,0,1,5,.717A226.144,226.144,0,0,0,80,296q0,8.043.559,15.978c-.186.006-.372.022-.559.022C66.767,312,56,297.645,56,280Z"/><circle cx="192" cy="264" r="16"/><circle cx="320" cy="264" r="16"/></svg>
