<svg id="Filled" height="512" viewBox="0 0 512 512" width="512" xmlns="http://www.w3.org/2000/svg"><path d="m431.737 296h-351.406c-.745 0 0-8.605 0-9.352v-86.648a79.933 79.933 0 0 1 79.869-80h191.342a79.933 79.933 0 0 1 79.865 80v86.648c0 .752 1.075 9.352.33 9.352z" fill="#351c05"/><ellipse cx="80" cy="264" fill="#dda37b" rx="32" ry="40"/><ellipse cx="432" cy="264" fill="#dda37b" rx="32" ry="40"/><path d="m424 283.777c0 108.206-75.216 188.223-168 188.223s-168-80.017-168-188.223 75.216-195.777 168-195.777 168 87.571 168 195.777z" fill="#e1b293"/><ellipse cx="152" cy="280" fill="#dd9c7b" rx="24" ry="16"/><ellipse cx="360" cy="280" fill="#dd9c7b" rx="24" ry="16"/><path d="m416 152-160-16-160 16 48-96 112-16 112 16z" fill="#aa9b8b"/><path d="m406.81 127.875-150.81-15.875-150.81 15.875-9.19 24.125 160-16 160 16z" fill="#fae4d0"/><path d="m152 248a8 8 0 0 0 8-8 24.028 24.028 0 0 1 24-24 8 8 0 0 0 0-16 40.045 40.045 0 0 0 -40 40 8 8 0 0 0 8 8z"/><path d="m328 200a8 8 0 0 0 0 16 24.028 24.028 0 0 1 24 24 8 8 0 0 0 16 0 40.045 40.045 0 0 0 -40-40z"/><path d="m248 280h16a8 8 0 0 0 0-16h-6.557l6.449-38.685a8 8 0 0 0 -15.784-2.63l-8 48a8 8 0 0 0 7.892 9.315z"/><path d="m440 216.966v-16.966a87.628 87.628 0 0 0 -16.694-51.292l-9.021-23.681a7.987 7.987 0 0 0 -5.235-4.816l-33.9-67.789a8 8 0 0 0 -6.023-4.342l-112-16a8.024 8.024 0 0 0 -2.264 0l-112 16a8 8 0 0 0 -6.023 4.342l-33.89 67.789a7.989 7.989 0 0 0 -5.235 4.816l-8.913 23.4a87.987 87.987 0 0 0 -16.802 51.573v16.966c-18.235 4.46-32 23.853-32 47.034 0 26.468 17.944 48 40 48 .57 0 1.137-.038 1.7-.066 5.219 42.884 22.36 81.891 49.574 111.9 32.842 36.221 77.136 56.166 124.726 56.166s91.884-19.945 124.721-56.161c27.214-30.014 44.355-69.021 49.574-111.9.568.028 1.135.066 1.7.066 22.056 0 40-21.532 40-48 .005-23.186-13.76-42.579-31.995-47.039zm-16 0c-.513.125-1.019.283-1.527.431a214 214 0 0 0 -28.013-59.508l16.953 1.695a71.59 71.59 0 0 1 12.587 40.416zm-315.916-74.214 2.832-7.436 145.084-15.272 145.084 15.272 2.832 7.436-147.116-14.712c-.265-.026-.53-.04-.8-.04s-.531.014-.8.04zm41.2-79.425 106.716-15.246 106.719 15.246 27.372 54.744-133.253-14.027a7.957 7.957 0 0 0 -1.676 0l-133.253 14.027zm-48.8 96.265 17.061-1.706a214.026 214.026 0 0 0 -28.013 59.508c-.508-.148-1.014-.306-1.527-.431v-16.963a70.827 70.827 0 0 1 12.474-40.408zm-20.484 136.408c-13.233 0-24-14.355-24-32s10.767-32 24-32a18.072 18.072 0 0 1 5.533.875 235.522 235.522 0 0 0 -5.533 50.902c0 4.1.118 8.165.328 12.21-.11.002-.219.013-.328.013zm288.867 117.092c-29.767 32.829-69.849 50.908-112.867 50.908s-83.1-18.079-112.867-50.908c-30.395-33.521-47.133-79.446-47.133-129.315 0-47.836 15.243-93.16 42.976-128.035l117.024-11.702 117.024 11.7c27.733 34.877 42.976 80.2 42.976 128.037 0 49.869-16.738 95.794-47.133 129.315zm63.133-117.092c-.109 0-.218-.011-.328-.013.21-4.045.328-8.113.328-12.21a235.522 235.522 0 0 0 -5.533-50.9 18.072 18.072 0 0 1 5.533-.877c13.233 0 24 14.355 24 32s-10.767 32-24 32z"/><circle cx="192" cy="248" r="16"/><circle cx="320" cy="248" r="16"/><path d="m290.258 314.43c-6.837 7.048-15.718 13.57-34.258 13.57s-27.421-6.522-34.258-13.57a8 8 0 0 0 -11.484 11.14c12.363 12.746 26.471 18.43 45.742 18.43s33.379-5.684 45.742-18.43a8 8 0 1 0 -11.484-11.14z"/></svg>