<?xml version="1.0"?>
<svg xmlns="http://www.w3.org/2000/svg" id="Filled" viewBox="0 0 512 512" width="512" height="512"><path d="M256,48C145.543,48,56,144.707,56,264V464H456V264C456,144.707,366.457,48,256,48Z" style="fill:#dea634"/><ellipse cx="80" cy="256" rx="32" ry="40" style="fill:#fedac5"/><ellipse cx="432" cy="256" rx="32" ry="40" style="fill:#fedac5"/><path d="M364,168.293c-86.2,0-159.521-29.678-172-72C129.839,124.454,88,190.936,88,272c0,106.039,75.216,192,168,192s168-85.961,168-192a213.766,213.766,0,0,0-17-84.188,32.549,32.549,0,0,0-31.248-19.735Q369.927,168.29,364,168.293Z" style="fill:#fee8d6"/><ellipse cx="152" cy="272" rx="24" ry="16" style="fill:#fed4c5"/><ellipse cx="360" cy="272" rx="24" ry="16" style="fill:#fed4c5"/><path d="M460.383,222.216C441.882,116.607,355.993,40,256,40c-49.209,0-96.949,18.841-134.427,53.052-36.372,33.2-61.148,79-69.945,129.15C44.446,230.883,40,242.829,40,256a54.274,54.274,0,0,0,8,28.766V464a8,8,0,0,0,8,8H456a8,8,0,0,0,8-8V284.766A54.274,54.274,0,0,0,472,256C472,242.836,467.559,230.9,460.383,222.216Zm-379.8,65.761c-.194.007-.387.023-.581.023-13.233,0-24-14.355-24-32s10.767-32,24-32a18.04,18.04,0,0,1,4.77.65A231.583,231.583,0,0,0,80,271.707Q80,279.9,80.581,287.977Zm42.962-119.836c15.99-26.554,38.054-47.552,64.147-61.15,9.245,19.288,29.63,35.848,59.6,48.27C279.559,168.635,321.007,176,364,176c3.973,0,8.023-.075,12.04-.222a24.5,24.5,0,0,1,23.6,14.889A204.671,204.671,0,0,1,416,271.707c0,101.458-71.775,184-160,184s-160-82.542-160-184C96,233.876,105.524,198.064,123.543,168.141Zm303.564,56.545A18.067,18.067,0,0,1,432,224c13.233,0,24,14.355,24,32s-10.767,32-24,32c-.194,0-.387-.016-.581-.023q.569-8.076.581-16.27A225.892,225.892,0,0,0,427.107,224.686ZM132.36,104.869C166.883,73.355,210.792,56,256,56c87.209,0,162.84,63.563,185.292,153.321a33.33,33.33,0,0,0-18.077-.142,216.529,216.529,0,0,0-8.865-24.809,40.39,40.39,0,0,0-38.9-24.581c-3.822.14-7.676.211-11.454.211-40.939,0-80.212-6.932-110.582-19.52-29.358-12.168-48.444-28.768-53.744-46.743A8,8,0,0,0,188.7,88.713C156.31,103.386,129.04,128,109.837,159.887A203.592,203.592,0,0,0,88.58,209.12a33.37,33.37,0,0,0-17.869.2C80.9,168.815,102.4,132.217,132.36,104.869ZM64,299.98A34.2,34.2,0,0,0,80,304c.758,0,1.514-.038,2.269-.089,5.806,41,22.665,78.827,48.917,108.828A176.42,176.42,0,0,0,187.377,456H64ZM324.623,456a176.42,176.42,0,0,0,56.191-43.261c26.252-30,43.111-67.827,48.917-108.828.755.051,1.511.089,2.269.089a34.2,34.2,0,0,0,16-4.02V456Z"/><path d="M152,239.707a8,8,0,0,0,8-8,24.027,24.027,0,0,1,24-24,8,8,0,0,0,0-16,40.045,40.045,0,0,0-40,40A8,8,0,0,0,152,239.707Z"/><path d="M328,208a24.027,24.027,0,0,1,24,24,8,8,0,0,0,16,0,40.045,40.045,0,0,0-40-40,8,8,0,0,0,0,16Z"/><path d="M248,272h16a8,8,0,0,0,0-16h-6.557l6.449-38.685a8,8,0,0,0-15.784-2.63l-8,48A8,8,0,0,0,248,272Z"/><path d="M203.976,289.085a8,8,0,0,0-2.89,10.939C210.834,316.774,225.885,336,256,336c12.952,0,23.889-3.4,33.436-10.406,7.853-5.761,14.678-13.886,21.478-25.57a8,8,0,1,0-13.828-8.048C285.35,312.143,273.83,320,256,320s-29.35-7.857-41.086-28.024A8,8,0,0,0,203.976,289.085Z"/><circle cx="192" cy="240" r="16"/><circle cx="320" cy="240" r="16"/></svg>
