<svg id="Filled" height="512" viewBox="0 0 512 512" width="512" xmlns="http://www.w3.org/2000/svg"><path d="m160 88h192a80 80 0 0 1 80 80v64a0 0 0 0 1 0 0h-352a0 0 0 0 1 0 0v-64a80 80 0 0 1 80-80z" fill="#58453f"/><ellipse cx="80" cy="264" fill="#e6bfa5" rx="32" ry="40"/><ellipse cx="432" cy="264" fill="#e6bfa5" rx="32" ry="40"/><path d="m424 279.707c0 106.039-75.216 192.293-168 192.293s-168-86.254-168-192.293 75.216-192 168-192 168 85.961 168 192z" fill="#e6cbb8"/><ellipse cx="152" cy="280" fill="#e6b7a5" rx="24" ry="16"/><ellipse cx="360" cy="280" fill="#e6b7a5" rx="24" ry="16"/><path d="m120 40h176a48 48 0 0 1 48 48 48 48 0 0 1 -48 48h-80a96 96 0 0 1 -96-96 0 0 0 0 1 0 0z" fill="#58453f"/><path d="m440 216.966v-48.966a88.1 88.1 0 0 0 -88-88h-.581a56.078 56.078 0 0 0 -55.419-48h-176a8 8 0 0 0 -8 8 103.354 103.354 0 0 0 11.672 47.83 87.758 87.758 0 0 0 -51.672 80.17v48.966c-18.236 4.46-32 23.853-32 47.034 0 26.468 17.944 48 40 48 .764 0 1.526-.038 2.286-.089 13.577 95.189 86.299 168.089 173.714 168.089s160.137-72.9 173.714-168.089c.76.051 1.522.089 2.286.089 22.056 0 40-21.532 40-48 0-23.181-13.765-42.574-32-47.034zm-16-48.966v48.963c-.279.068-.553.155-.83.229-12.881-44.5-39.292-83.035-75.307-108.1a55.455 55.455 0 0 0 3.556-13.092h.581a72.081 72.081 0 0 1 72 72zm-96 16a48.017 48.017 0 0 0 -41.543 24h-60.915a47.953 47.953 0 0 0 -83.084 0h-33.822c11.414-31.012 30.187-58.234 54.754-78.322a103.36 103.36 0 0 0 52.61 14.322h80a55.911 55.911 0 0 0 43.729-21.076c28.8 20.366 50.82 50.274 63.626 85.076h-33.812a48.017 48.017 0 0 0 -41.543-24zm0 16a32 32 0 1 1 -32 32 32.036 32.036 0 0 1 32-32zm-112 32a32 32 0 1 1 -32-32 32.036 32.036 0 0 1 32 32zm80-184a40 40 0 0 1 0 80h-80a88.12 88.12 0 0 1 -87.64-80zm-163.778 53.546a104.859 104.859 0 0 0 17.613 18.634c-28.856 24.82-49.948 58.775-61.013 97.01-.274-.074-.546-.16-.822-.227v-48.963a71.814 71.814 0 0 1 44.222-66.454zm-52.222 194.454c-13.234 0-24-14.355-24-32s10.766-32 24-32a18.057 18.057 0 0 1 4.934.7 226.2 226.2 0 0 0 -4.934 47.007q0 8.217.583 16.27c-.194.006-.388.023-.583.023zm176 168c-88.224 0-160-82.674-160-184.293a209.487 209.487 0 0 1 7.493-55.707h33.186a48 48 0 1 0 94.642 0h16.569l-7.781 46.685a8 8 0 0 0 7.891 9.315h16a8 8 0 0 0 0-16h-6.556l6.447-38.685a8.047 8.047 0 0 0 .1-1.315h16.687a48 48 0 1 0 94.642 0h33.18a209.437 209.437 0 0 1 7.5 55.707c0 101.619-71.775 184.293-160 184.293zm176-168c-.195 0-.389-.017-.583-.023q.572-8.052.583-16.27a226.132 226.132 0 0 0 -4.922-47.012 18.051 18.051 0 0 1 4.922-.695c13.233 0 24 14.355 24 32s-10.767 32-24 32z"/><circle cx="184" cy="232" r="16"/><circle cx="328" cy="232" r="16"/><path d="m290.258 314.43c-6.837 7.048-15.718 13.57-34.258 13.57s-27.421-6.522-34.257-13.57a8 8 0 0 0 -11.486 11.14c12.364 12.746 26.471 18.43 45.743 18.43s33.379-5.684 45.742-18.43a8 8 0 1 0 -11.484-11.14z"/></svg>