<svg id="Filled" height="512" viewBox="0 0 512 512" width="512" xmlns="http://www.w3.org/2000/svg"><path d="m232.5 49.5h16a160 160 0 0 1 160 160v48a0 0 0 0 1 0 0h-336a0 0 0 0 1 0 0v-48a160 160 0 0 1 160-160z" fill="#351c05"/><circle cx="416" cy="337.5" fill="#351c05" r="64"/><ellipse cx="64" cy="256" fill="#dda37b" rx="32" ry="40"/><ellipse cx="416" cy="256" fill="#dda37b" rx="32" ry="40"/><path d="m400.5 209.5c-65.649-36.825-121.914-79.58-160-128-38.086 48.421-94.351 91.176-160 128-6.424 20.349-8 41.12-8 64 0 106.039 75.216 192 168 192s168-85.961 168-192c0-22.88-1.576-43.651-8-64z" fill="#e1b293"/><ellipse cx="136" cy="272" fill="#dd9c7b" rx="24" ry="16"/><ellipse cx="344" cy="272" fill="#dd9c7b" rx="24" ry="16"/><path d="m452.931 274.424a56.1 56.1 0 0 0 3.069-18.424c0-26.467-17.944-48-40-48 0-92.636-75.364-168-168-168h-16c-92.636 0-168 75.364-168 168-22.056 0-40 21.533-40 48s17.944 48 40 48c.744 0 1.487-.038 2.228-.087 5.772 41.113 22.644 79.047 48.958 109.12 33.272 38.025 77.599 58.967 124.814 58.967s91.542-20.942 124.814-58.967a197.239 197.239 0 0 0 12.34-15.654 73.165 73.165 0 0 0 38.046 10.621c40.141 0 72.8-32.3 72.8-72a72.1 72.1 0 0 0 -35.069-61.576zm-12.931-18.424c0 17.645-10.767 32-24 32-.187 0-.373-.016-.559-.022q.548-7.933.559-15.978c0-14.411-.543-30.74-3.7-47.6a18.077 18.077 0 0 1 3.7-.4c13.233 0 24 14.355 24 32zm-208-200h16c80.668 0 146.849 63.169 151.7 142.637-67.447-38.337-119.054-79.9-153.415-123.583a8 8 0 0 0 -12.576 0c-34.357 43.685-85.964 85.246-153.409 123.583 4.851-79.468 71.032-142.637 151.7-142.637zm-168 232c-13.233 0-24-14.355-24-32s10.767-32 24-32a18.07 18.07 0 0 1 3.7.4c-3.157 16.86-3.7 33.189-3.7 47.6q0 8.043.559 15.978c-.186.006-.372.022-.559.022zm176 168c-88.225 0-160-82.542-160-184 0-24.7 2.022-42.473 6.723-58.6 66.012-37.355 117.515-77.915 153.277-120.7 35.763 42.787 87.266 83.347 153.277 120.7 4.701 16.127 6.723 33.9 6.723 58.6 0 101.458-71.775 184-160 184zm175.2-64a56.89 56.89 0 0 1 -29.285-8.071 214.134 214.134 0 0 0 27.854-80.016c.741.049 1.484.087 2.228.087 11.582 0 22.025-5.944 29.337-15.416a56.086 56.086 0 0 1 26.489 47.416c0 30.878-25.399 56-56.623 56z"/><path d="m292.024 289.085a8 8 0 0 0 -10.938 2.891c-11.736 20.167-23.256 28.024-41.086 28.024s-29.35-7.857-41.086-28.024a8 8 0 1 0 -13.828 8.048c9.748 16.75 24.799 35.976 54.914 35.976 12.952 0 23.889-3.4 33.436-10.406 7.853-5.761 14.678-13.886 21.478-25.57a8 8 0 0 0 -2.89-10.939z"/><path d="m136 239.707a8 8 0 0 0 8-8 24.027 24.027 0 0 1 24-24 8 8 0 0 0 0-16 40.045 40.045 0 0 0 -40 40 8 8 0 0 0 8 8z"/><path d="m312 192a8 8 0 0 0 0 16 24.027 24.027 0 0 1 24 24 8 8 0 0 0 16 0 40.045 40.045 0 0 0 -40-40z"/><path d="m232 272h16a8 8 0 0 0 0-16h-6.557l6.449-38.685a8 8 0 0 0 -15.784-2.63l-8 48a8 8 0 0 0 7.892 9.315z"/><circle cx="176" cy="240" r="16"/><circle cx="304" cy="240" r="16"/></svg>