<?xml version="1.0"?>
<svg xmlns="http://www.w3.org/2000/svg" id="Filled" viewBox="0 0 512 512" width="512" height="512"><path d="M440,224,416,48c-20.018,0-20.018,16-40.036,16s-20.017-16-40.035-16-20,16-40.008,16c-19.987,0-19.987-16-39.973-16s-20,16-40,16S195.96,48,175.968,48s-19.992,16-39.984,16S115.992,48,96,48L72,224Z" style="fill:#ca6e25"/><ellipse cx="80" cy="256" rx="32" ry="40" style="fill:#e6bfa5"/><ellipse cx="432" cy="256" rx="32" ry="40" style="fill:#e6bfa5"/><path d="M88,264.763c0-62.44,28.44-119.581,72-152.763,19.4,21.651,55.523,38.261,96.889,38.261,40.85,0,75.547-17.056,95.111-38.261,42.977,33.264,72,90.818,72,152.763V272c0,106.039-75.216,192-168,192S88,378.039,88,272Z" style="fill:#e6cbb8"/><ellipse cx="152" cy="272" rx="24" ry="16" style="fill:#e6b7a5"/><ellipse cx="360" cy="272" rx="24" ry="16" style="fill:#e6b7a5"/><path d="M152,240a8,8,0,0,0,8-8,24.027,24.027,0,0,1,24-24,8,8,0,0,0,0-16,40.045,40.045,0,0,0-40,40A8,8,0,0,0,152,240Z"/><path d="M328,192a8,8,0,0,0,0,16,24.027,24.027,0,0,1,24,24,8,8,0,0,0,16,0A40.045,40.045,0,0,0,328,192Z"/><path d="M248,272h16a8,8,0,0,0,0-16h-6.556l6.447-38.685a8,8,0,1,0-15.782-2.63l-8,48A8,8,0,0,0,248,272Z"/><path d="M446.328,211.2l-22.4-164.278A8,8,0,0,0,416,40c-12.813,0-19.577,5.406-25.012,9.751C386.449,53.379,383.169,56,375.964,56s-10.484-2.621-15.022-6.249C355.506,45.406,348.742,40,335.929,40s-19.569,5.407-25,9.753c-4.7,3.762-7.811,6.247-15.007,6.247s-10.29-2.484-14.987-6.245C275.505,45.408,268.749,40,255.948,40s-19.565,5.408-25,9.753c-4.7,3.762-7.807,6.247-15,6.247s-10.294-2.484-14.994-6.246C195.529,45.408,188.771,40,175.968,40s-19.561,5.408-24.99,9.754c-4.7,3.762-7.805,6.246-14.994,6.246s-10.294-2.484-14.993-6.246C115.561,45.408,108.8,40,96,40a8,8,0,0,0-7.927,6.919L65.672,211.2C50.674,218.127,40,235.59,40,256c0,26.468,17.944,48,40,48,.744,0,1.487-.038,2.228-.087,5.768,41.113,22.644,79.047,48.958,109.12C164.458,451.059,208.785,472,256,472s91.542-20.941,124.814-58.967c26.314-30.073,43.19-68.007,48.958-109.12.741.049,1.484.087,2.228.087,22.056,0,40-21.532,40-48C472,235.59,461.326,218.127,446.328,211.2ZM102.84,57.046c2.991,1.068,5.273,2.894,8.153,5.2C116.423,66.592,123.181,72,135.984,72s19.561-5.408,24.991-9.754c4.7-3.762,7.8-6.246,14.993-6.246s10.294,2.485,14.994,6.246C196.392,66.592,203.149,72,215.953,72s19.564-5.408,25-9.753c4.7-3.762,7.807-6.247,15-6.247s10.289,2.484,14.987,6.245C276.363,66.591,283.12,72,295.921,72s19.568-5.407,25-9.753c4.7-3.762,7.81-6.247,15.007-6.247s10.484,2.621,15.023,6.249c5.435,4.345,12.2,9.751,25.012,9.751s19.578-5.406,25.013-9.751c2.8-2.239,5.124-4.095,8.185-5.187l20.594,151.029a34.069,34.069,0,0,0-6.645,1.118c-12.113-41.683-36.14-78.242-69.187-103.425a8,8,0,0,0-11.335,1.68C326.563,129.659,292.575,144,256,144s-70.563-14.341-86.589-36.536a8,8,0,0,0-11.335-1.68C125.029,130.967,101,167.526,88.889,209.209a34.066,34.066,0,0,0-6.646-1.118ZM80,288c-13.234,0-24-14.355-24-32s10.766-32,24-32a18.006,18.006,0,0,1,4.985.714A226.438,226.438,0,0,0,80,272q0,8.043.559,15.978C80.373,287.984,80.187,288,80,288ZM256,456c-88.224,0-160-82.542-160-184,0-59.027,24.43-113.975,65.71-148.638C182.143,146.136,217.381,160,256,160s73.857-13.864,94.29-36.638C391.57,158.025,416,212.973,416,272,416,373.458,344.224,456,256,456ZM432,288c-.187,0-.373-.016-.559-.022q.548-7.933.559-15.978a226.438,226.438,0,0,0-4.985-47.286A18.006,18.006,0,0,1,432,224c13.234,0,24,14.355,24,32S445.234,288,432,288Z"/><circle cx="192" cy="240" r="16"/><circle cx="320" cy="240" r="16"/><path d="M290.257,306.43C283.421,313.478,274.54,320,256,320s-27.421-6.522-34.257-13.57a8,8,0,0,0-11.486,11.14C222.621,330.316,236.728,336,256,336s33.379-5.684,45.743-18.43a8,8,0,0,0-11.486-11.14Z"/></svg>
