<svg id="Filled" height="512" viewBox="0 0 512 512" width="512" xmlns="http://www.w3.org/2000/svg"><path d="m376 256h80a0 0 0 0 1 0 0v32a80 80 0 0 1 -80 80 0 0 0 0 1 0 0v-112a0 0 0 0 1 0 0z" fill="#de9034"/><ellipse cx="256" cy="272" fill="#a36f58" rx="168" ry="192"/><ellipse cx="160" cy="272" fill="#a25e3c" rx="24" ry="16"/><ellipse cx="360" cy="272" fill="#a25e3c" rx="24" ry="16"/><path d="m455.467 273.5v-.001l-.002-.001z" fill="#351c05"/><path d="m455.967 248a201.653 201.653 0 0 0 -18.194-80c-32.612-71.51-104.787-120-181.789-120-110.448 0-199.984 100.288-199.984 224v112.006a79.993 79.993 0 0 0 79.994 79.994v-191.963a80.036 80.036 0 0 1 80-80.037h.006c44.176 0 95.989-35.808 96-79.981v-.019a80 80 0 0 0 79.973 80l.028.028c.015 44.158 19.808 79.952 63.964 79.971-.3-8.109.156-16.117.002-23.999z" fill="#dea634"/><path d="m320 208a24.027 24.027 0 0 1 24 24 8 8 0 0 0 16 0 40.045 40.045 0 0 0 -40-40 8 8 0 0 0 0 16z"/><path d="m248 272h16a8 8 0 0 0 0-16h-6.556l6.447-38.685a8 8 0 0 0 -15.782-2.63l-8 48a8 8 0 0 0 7.891 9.315z"/><path d="m308.024 289.085a8 8 0 0 0 -10.939 2.891c-11.736 20.167-23.255 28.024-41.085 28.024s-29.349-7.857-41.085-28.024a8 8 0 0 0 -13.83 8.048c9.748 16.75 24.8 35.976 54.915 35.976 12.952 0 23.889-3.4 33.435-10.406 7.854-5.761 14.679-13.886 21.48-25.57a8 8 0 0 0 -2.891-10.939z"/><path d="m135.994 472a8 8 0 0 0 8-8v-37.692c31.455 29.585 70.642 45.692 112.006 45.692 47.215 0 91.542-20.942 124.814-58.967a200.708 200.708 0 0 0 29.08-43.808 88 88 0 0 0 54.106-81.225v-32h-.038c.034-2.7.057-5.427 0-8.157a209.075 209.075 0 0 0 -18.914-83.163 215.5 215.5 0 0 0 -77.1-90.163c-34.037-22.581-72.754-34.517-111.964-34.517-55.728 0-108.067 24.249-147.378 68.28-39.082 43.776-60.606 101.92-60.606 163.72v112.006a88.094 88.094 0 0 0 87.994 87.994zm120.006-16c-42.148 0-81.907-18.693-112.006-52.64v-131.322a72.1 72.1 0 0 1 72.006-72.038c23.43 0 49.41-9.394 69.5-25.128 10.967-8.591 19.506-18.373 25.346-28.855a88.213 88.213 0 0 0 73.349 53.638c1.58 31.46 12.972 55.234 31.809 68.48v3.865c-.004 101.458-71.78 184-160.004 184zm163.959-111.022a223.673 223.673 0 0 0 12-68.777 71.118 71.118 0 0 0 16.041 3.412v8.387a72.471 72.471 0 0 1 -28.041 56.978zm-355.959-72.978c0-119.1 86.124-216 191.984-216 36.054 0 71.716 11.014 103.116 31.85a199.537 199.537 0 0 1 71.4 83.469 193.182 193.182 0 0 1 17.474 76.836c.066 3.366.016 6.739-.037 10.309-.025 1.665-.05 3.351-.062 5.054-14.384-1.757-25.783-8.343-33.958-19.644-9.093-12.567-13.9-30.5-13.911-51.85a8.089 8.089 0 0 0 -2.372-5.683 7.993 7.993 0 0 0 -5.659-2.341 72.086 72.086 0 0 1 -71.975-72v-.126a8 8 0 0 0 -15.992-.22c0 .121-.008.243-.008.364 0 18.082-10.08 35.931-28.371 50.259-17.365 13.602-39.656 21.723-59.635 21.723a88.122 88.122 0 0 0 -88 88.037v183.522a72.1 72.1 0 0 1 -63.994-71.553z"/><circle cx="200" cy="240" r="16"/><circle cx="312" cy="240" r="16"/></svg>