<svg id="Filled" height="512" viewBox="0 0 512 512" width="512" xmlns="http://www.w3.org/2000/svg"><path d="m256 40c-106.039 0-192 85.961-192 192v16h384v-16c0-106.039-85.961-192-192-192z" fill="#dea634"/><ellipse cx="80" cy="272" fill="#e6bfa5" rx="32" ry="40"/><ellipse cx="432" cy="272" fill="#e6bfa5" rx="32" ry="40"/><path d="m416 216c-65.649-36.825-121.914-79.58-160-128-38.086 48.421-94.351 91.176-160 128-6.424 20.349-8 41.12-8 64 0 106.039 75.216 192 168 192s168-85.961 168-192c0-22.88-1.576-43.651-8-64z" fill="#e6cbb8"/><ellipse cx="152" cy="288" fill="#e6b7a5" rx="24" ry="16"/><ellipse cx="360" cy="288" fill="#e6b7a5" rx="24" ry="16"/><path d="m152 256a8 8 0 0 0 8-8 24.027 24.027 0 0 1 24-24 8 8 0 0 0 0-16 40.045 40.045 0 0 0 -40 40 8 8 0 0 0 8 8z"/><path d="m328 208a8 8 0 0 0 0 16 24.027 24.027 0 0 1 24 24 8 8 0 0 0 16 0 40.045 40.045 0 0 0 -40-40z"/><path d="m248 288h16a8 8 0 0 0 0-16h-6.556l6.447-38.685a8 8 0 1 0 -15.782-2.63l-8 48a8 8 0 0 0 7.891 9.315z"/><path d="m456 233.626v-1.626c0-110.28-89.72-200-200-200s-200 89.72-200 200v1.626c-9.709 8.766-16 22.7-16 38.374 0 26.468 17.944 48 40 48a34.056 34.056 0 0 0 3.47-.2c6.728 38.07 23.093 73.092 47.716 101.232 33.272 38.027 77.599 58.968 124.814 58.968s91.542-20.941 124.814-58.968c24.623-28.14 40.986-63.162 47.716-101.232a34.056 34.056 0 0 0 3.47.2c22.056 0 40-21.532 40-48 0-15.67-6.291-29.608-16-38.374zm-200-185.626c99.091 0 180.123 78.739 183.851 176.934a33.609 33.609 0 0 0 -7.851-.934 33.972 33.972 0 0 0 -5.4.433c-.857-3.6-1.83-7.222-2.973-10.841a8 8 0 0 0 -3.715-4.57c-69.512-38.993-122.548-81.375-157.624-125.968a8 8 0 0 0 -12.576 0c-35.075 44.592-88.112 86.974-157.626 125.968a8 8 0 0 0 -3.715 4.57c-1.143 3.619-2.116 7.236-2.973 10.841a33.972 33.972 0 0 0 -5.398-.433 33.609 33.609 0 0 0 -7.851.934c3.728-98.195 84.76-176.934 183.851-176.934zm-176 256c-13.233 0-24-14.355-24-32s10.767-32 24-32a17.8 17.8 0 0 1 2.411.182 278.073 278.073 0 0 0 -2.411 39.818 230.592 230.592 0 0 0 1.248 23.951c-.415.029-.831.049-1.248.049zm176 160c-88.224 0-160-82.542-160-184 0-24.7 2.023-42.475 6.722-58.6 66.012-37.354 117.515-77.915 153.278-120.7 35.764 42.788 87.267 83.349 153.278 120.7 4.7 16.129 6.722 33.9 6.722 58.6 0 101.458-71.776 184-160 184zm176-160c-.417 0-.833-.02-1.248-.049a230.592 230.592 0 0 0 1.248-23.951 278.073 278.073 0 0 0 -2.411-39.818 17.8 17.8 0 0 1 2.411-.182c13.233 0 24 14.355 24 32s-10.767 32-24 32z"/><circle cx="192" cy="256" r="16"/><circle cx="320" cy="256" r="16"/><path d="m290.257 322.43c-6.836 7.048-15.717 13.57-34.257 13.57s-27.421-6.522-34.257-13.57a8 8 0 0 0 -11.486 11.14c12.364 12.746 26.471 18.43 45.743 18.43s33.379-5.684 45.743-18.43a8 8 0 0 0 -11.486-11.14z"/></svg>