<svg id="Filled" height="512" viewBox="0 0 512 512" width="512" xmlns="http://www.w3.org/2000/svg"><circle cx="416" cy="104" fill="#dea634" r="72"/><path d="m362.73 58.322a71.962 71.962 0 0 0 95.394 101.078 189.525 189.525 0 0 0 -95.394-101.078z" fill="#cf7644"/><circle cx="96" cy="104" fill="#dea634" r="72"/><path d="m53.876 159.4a71.932 71.932 0 0 0 95.394-101.078 189.525 189.525 0 0 0 -95.394 101.078z" fill="#cf7644"/><path d="m64 256c0-108.295 85.961-192 192-192s192 83.705 192 192z" fill="#dea634"/><path d="m432 240h-32v40c0 22.091 14.327 40 32 40s32-17.909 32-40-14.327-40-32-40z" fill="#e6bfa5"/><path d="m112 240h-32c-17.673 0-32 17.909-32 40s14.327 40 32 40 32-17.909 32-40z" fill="#e6bfa5"/><path d="m88 240c4.443-10.715 21.122-16.353 27.5-25.877 6.425-9.6 2.94-35.42 11.077-43.556s25.96 3.35 35.556-3.075c9.523-6.375 13.09-24.2 23.8-28.641 10.53-4.367 25.64 5.669 37.085 3.405 11.11-2.198 21.229-22.256 32.982-22.256s21.873 20.058 32.982 22.256c11.447 2.265 26.558-7.77 37.089-3.4 10.715 4.443 14.282 22.267 23.8 28.644 9.6 6.424 27.421 2.94 35.557 11.077s4.65 25.96 11.075 35.556c6.375 9.523 23.05 15.155 27.492 25.869h-.239q.237 3.964.239 8v39.708c.005 106.036-75.211 192.29-167.995 192.29s-168-86.254-168-192.293z" fill="#e6cbb8"/><ellipse cx="152" cy="288.293" fill="#e6b7a5" rx="24" ry="16"/><ellipse cx="360" cy="288.293" fill="#e6b7a5" rx="24" ry="16"/><path d="m152 256a8 8 0 0 0 8-8 24.027 24.027 0 0 1 24-24 8 8 0 0 0 0-16 40.045 40.045 0 0 0 -40 40 8 8 0 0 0 8 8z"/><path d="m328 208.293a8 8 0 0 0 0 16 24.027 24.027 0 0 1 24 24 8 8 0 0 0 16 0 40.045 40.045 0 0 0 -40-40z"/><path d="m248 288.293h16a8 8 0 0 0 0-16h-6.556l6.447-38.685a8 8 0 0 0 -15.782-2.63l-8 48a8 8 0 0 0 7.891 9.315z"/><path d="m308.024 305.378a8 8 0 0 0 -10.939 2.891c-11.736 20.167-23.255 28.024-41.085 28.024s-29.349-7.857-41.085-28.024a8 8 0 0 0 -13.83 8.048c9.748 16.75 24.8 35.976 54.915 35.976 12.952 0 23.889-3.4 33.435-10.406 7.854-5.761 14.679-13.886 21.48-25.57a8 8 0 0 0 -2.891-10.939z"/><circle cx="192" cy="256.293" r="16"/><circle cx="320" cy="256.293" r="16"/><path d="m455.464 241.161a201.671 201.671 0 0 0 -14.1-61.307 80 80 0 1 0 -99.844-105.079 204.159 204.159 0 0 0 -171.02-.011 80.017 80.017 0 1 0 -99.87 105.115 201.686 201.686 0 0 0 -14.094 61.282c-10.01 8.733-16.536 22.885-16.536 38.839 0 26.467 17.944 48 40 48a34.055 34.055 0 0 0 3.543-.208c16.357 91.299 87.47 160.208 172.457 160.208s156.1-68.909 172.457-160.208a34.055 34.055 0 0 0 3.543.208c22.056 0 40-21.533 40-48 0-15.954-6.526-30.106-16.536-38.839zm24.536-137.178a64.119 64.119 0 0 1 -17.88 44.278 197.375 197.375 0 0 0 -87.551-92.988 63.94 63.94 0 0 1 105.431 48.71zm-116.587-36.46a180.178 180.178 0 0 1 85.8 91.137 63.165 63.165 0 0 1 -14.475 6.534 197.688 197.688 0 0 0 -78.914-83.039 63.361 63.361 0 0 1 7.589-14.632zm-331.413 36.46a64.05 64.05 0 0 1 105.52-48.762 197.413 197.413 0 0 0 -87.666 93.1 63.988 63.988 0 0 1 -17.854-44.338zm30.77 54.717a180.183 180.183 0 0 1 85.854-91.2 63.712 63.712 0 0 1 7.551 14.654 197.692 197.692 0 0 0 -78.913 83.033 63.449 63.449 0 0 1 -14.492-6.487zm65.6-36.058c34.206-32.658 79.53-50.642 127.63-50.642s93.424 17.984 127.635 50.641a181.875 181.875 0 0 1 54.938 110.018 33.616 33.616 0 0 0 -6.573-.659h-3.38c-3.847-5.414-9.552-9.462-14.727-13.122-4.277-3.024-8.7-6.152-10.737-9.2-1.934-2.889-2.677-8.223-3.4-13.381-1.116-8.012-2.382-17.093-8.67-23.382s-15.37-7.554-23.382-8.671c-5.158-.719-10.492-1.463-13.381-3.4-2.834-1.9-5.532-6.51-8.14-10.97-4.106-7.021-8.76-14.978-17.051-18.416-8.145-3.379-16.977-1.082-24.768.946-5.083 1.321-10.342 2.688-13.833 2-2.81-.556-7.382-5.064-11.054-8.687-6.517-6.427-13.907-13.717-23.477-13.717s-16.959 7.29-23.479 13.721c-3.673 3.622-8.244 8.131-11.054 8.687-3.492.693-8.747-.677-13.83-2-7.791-2.028-16.623-4.326-24.766-.948-8.291 3.438-12.945 11.394-17.05 18.414-2.609 4.46-5.306 9.072-8.14 10.969-1.986 1.331-7.409.469-11.766-.222-7.961-1.264-17.871-2.837-25 4.288-6.366 6.366-7.545 17.346-8.687 27.965-.669 6.234-1.5 13.992-3.381 16.8-2.039 3.046-6.462 6.175-10.74 9.2-5.177 3.662-10.883 7.711-14.73 13.126h-3.377a33.616 33.616 0 0 0 -6.573.659 181.875 181.875 0 0 1 54.938-110.018zm-48.37 189.358c-13.234 0-24-14.355-24-32s10.766-32 24-32v39.707a229 229 0 0 0 1.292 24.242c-.43.031-.86.051-1.292.051zm336-24.293c0 101.62-71.776 184.293-160 184.293s-160-82.673-160-184.293v-45.828c2.061-3.372 6.775-6.707 11.351-9.943 5.463-3.866 11.112-7.862 14.794-13.362 4.07-6.079 5.005-14.779 5.995-23.99.684-6.366 1.717-15.986 4.092-18.36 1.358-1.358 7.032-.457 11.174.2 7.49 1.189 15.976 2.536 23.176-2.284 5.889-3.942 9.529-10.167 13.05-16.187 2.972-5.08 6.044-10.334 9.368-11.712 3.184-1.32 8.992.191 14.608 1.652 6.5 1.693 13.878 3.612 20.964 2.211 7.522-1.488 13.451-7.337 19.185-12.992 4.115-4.06 9.237-9.112 12.243-9.112s8.129 5.052 12.245 9.112c5.734 5.656 11.663 11.5 19.184 12.992 7.084 1.4 14.46-.517 20.967-2.21 5.617-1.461 11.424-2.971 14.611-1.651 3.324 1.379 6.4 6.633 9.368 11.715 3.521 6.02 7.162 12.245 13.051 16.187 5.942 3.979 13.126 4.98 20.074 5.948 5.791.808 11.78 1.643 14.276 4.139s3.33 8.484 4.137 14.276c.968 6.948 1.969 14.131 5.947 20.074 3.682 5.5 9.331 9.5 14.794 13.359 4.457 3.153 9.047 6.4 11.184 9.682.108 2.115.162 4.255.162 6.377zm16 24.293c-.432 0-.862-.02-1.292-.051a229 229 0 0 0 1.292-24.242v-39.707c13.234 0 24 14.355 24 32s-10.766 32-24 32z"/></svg>