<?xml version="1.0"?>
<svg xmlns="http://www.w3.org/2000/svg" id="Filled" viewBox="0 0 512 512" width="512" height="512"><path d="M256,48C149.961,48,64,133.961,64,240v16H448V240C448,133.961,362.039,48,256,48Z" style="fill:#351c05"/><ellipse cx="80" cy="272" rx="32" ry="40" style="fill:#a3633c"/><ellipse cx="432" cy="272" rx="32" ry="40" style="fill:#a3633c"/><path d="M88,264.763c0-62.44,28.44-119.581,72-152.763,19.4,21.651,55.523,38.261,96.889,38.261,40.85,0,75.547-17.056,95.111-38.261,42.977,33.264,72,90.818,72,152.763V272c0,106.039-75.216,192-168,192S88,378.039,88,272Z" style="fill:#a36f58"/><ellipse cx="152" cy="288" rx="24" ry="16" style="fill:#a25e3c"/><ellipse cx="360" cy="288" rx="24" ry="16" style="fill:#a25e3c"/><path d="M152,256a8,8,0,0,0,8-8,24.028,24.028,0,0,1,24-24,8,8,0,0,0,0-16,40.045,40.045,0,0,0-40,40A8,8,0,0,0,152,256Z"/><path d="M328,208a8,8,0,0,0,0,16,24.028,24.028,0,0,1,24,24,8,8,0,0,0,16,0A40.045,40.045,0,0,0,328,208Z"/><path d="M248,288h16a8,8,0,0,0,0-16h-6.557l6.449-38.685a8,8,0,0,0-15.784-2.63l-8,48A8,8,0,0,0,248,288Z"/><path d="M455.884,233.52C452.45,126.228,364.111,40,256,40S59.55,126.228,56.116,233.52C46.341,242.279,40,256.267,40,272c0,26.468,17.944,48,40,48a33.985,33.985,0,0,0,5-.38c7.5,35.04,23.259,67.21,46.186,93.412C164.458,451.059,208.784,472,256,472s91.542-20.941,124.814-58.968c22.927-26.2,38.691-58.372,46.186-93.412a33.985,33.985,0,0,0,5,.38c22.056,0,40-21.532,40-48C472,256.267,465.659,242.279,455.884,233.52ZM256,56c96.35,0,175.631,74.443,183.37,168.831A33.556,33.556,0,0,0,432,224a34.076,34.076,0,0,0-5.054.379c-10.319-47.946-36.021-90.4-73.022-118.595a8,8,0,0,0-11.335,1.68C326.563,129.659,292.575,144,256,144s-70.563-14.341-86.589-36.536a8,8,0,0,0-11.335-1.68c-37,28.2-62.7,70.653-73.023,118.6A34.015,34.015,0,0,0,80,224a33.556,33.556,0,0,0-7.37.831C80.369,130.443,159.65,56,256,56ZM80,304c-13.233,0-24-14.355-24-32s10.767-32,24-32a17.922,17.922,0,0,1,2.244.154,228.376,228.376,0,0,0-.025,63.695A18.1,18.1,0,0,1,80,304ZM256,456c-88.225,0-160-82.542-160-184,0-59.027,24.43-113.975,65.711-148.638C182.144,146.136,217.382,160,256,160s73.856-13.864,94.289-36.638C391.57,158.025,416,212.973,416,272,416,373.458,344.225,456,256,456ZM432,304a18.1,18.1,0,0,1-2.219-.151,228.405,228.405,0,0,0-.024-63.692A17.883,17.883,0,0,1,432,240c13.233,0,24,14.355,24,32S445.233,304,432,304Z"/><circle cx="192" cy="256" r="16"/><circle cx="320" cy="256" r="16"/><path d="M290.258,322.43C283.421,329.478,274.54,336,256,336s-27.421-6.522-34.258-13.57a8,8,0,0,0-11.484,11.14C222.621,346.316,236.729,352,256,352s33.379-5.684,45.742-18.43a8,8,0,1,0-11.484-11.14Z"/></svg>
