<?xml version="1.0"?>
<svg xmlns="http://www.w3.org/2000/svg" id="Filled" viewBox="0 0 512 512" width="512" height="512"><path d="M456,256c0-123.712-89.543-216-200-216S56,132.288,56,256L32,384a64,64,0,0,0,64,64H416a64,64,0,0,0,64-64Z" style="fill:#351c05"/><ellipse cx="80" cy="264" rx="32" ry="40" style="fill:#fedac5"/><ellipse cx="432" cy="264" rx="32" ry="40" style="fill:#fedac5"/><path d="M424,224C358.351,187.175,294.086,104.42,256,56,217.914,104.421,153.649,187.176,88,224v56c0,106.039,75.216,192,168,192s168-85.961,168-192Z" style="fill:#fee8d6"/><ellipse cx="152" cy="280" rx="24" ry="16" style="fill:#fed4c5"/><ellipse cx="360" cy="280" rx="24" ry="16" style="fill:#fed4c5"/><path d="M469.035,282.109A56.128,56.128,0,0,0,472,264a53.951,53.951,0,0,0-8.964-30.238C458.21,177.87,434.862,126.84,397.127,89.875a201,201,0,0,0-281.927-.32C77.286,126.533,53.793,177.713,48.959,233.77A53.95,53.95,0,0,0,40,264a56.134,56.134,0,0,0,2.965,18.11L24.137,382.526A8.006,8.006,0,0,0,24,384a72.081,72.081,0,0,0,72,72h76.213a158.255,158.255,0,0,0,167.574,0H416a72.081,72.081,0,0,0,72-72,8.006,8.006,0,0,0-.137-1.474ZM432,280V232c13.234,0,24,14.355,24,32s-10.766,32-24,32c-.187,0-.373-.016-.559-.022Q431.989,288.046,432,280ZM126.372,101.009a185,185,0,0,1,259.559.3c31.27,30.631,51.9,71.781,59.15,117.344a33.318,33.318,0,0,0-18.237-2.238c-62.5-35.562-124.789-114.776-162.088-162.218l-2.468-3.139a8,8,0,0,0-12.576,0l-2.465,3.135c-37.3,47.443-99.586,126.66-162.091,162.222a33.313,33.313,0,0,0-18.233,2.237C74.2,172.938,94.945,131.659,126.372,101.009ZM80.559,295.978c-.186.006-.372.022-.559.022-13.234,0-24-14.355-24-32s10.766-32,24-32v48Q80,288.043,80.559,295.978ZM96,440a56.064,56.064,0,0,1-56-55.281l15.524-82.791A35.8,35.8,0,0,0,80,312c.744,0,1.487-.038,2.228-.087,5.768,41.113,22.644,79.047,48.958,109.12A187.6,187.6,0,0,0,150.33,440Zm0-160V228.627c62.064-36.576,122.225-111.685,160-159.686,37.774,48,97.933,123.108,160,159.686V280c0,101.458-71.776,184-160,184S96,381.458,96,280ZM416,440H361.67a187.6,187.6,0,0,0,19.144-18.967c26.314-30.073,43.19-68.007,48.958-109.12.741.049,1.484.087,2.228.087a35.8,35.8,0,0,0,24.472-10.072L472,384.719A56.064,56.064,0,0,1,416,440Z"/><path d="M152,247.707a8,8,0,0,0,8-8,24.027,24.027,0,0,1,24-24,8,8,0,0,0,0-16,40.045,40.045,0,0,0-40,40A8,8,0,0,0,152,247.707Z"/><path d="M328,216a24.027,24.027,0,0,1,24,24,8,8,0,0,0,16,0,40.045,40.045,0,0,0-40-40,8,8,0,0,0,0,16Z"/><path d="M248,280h16a8,8,0,0,0,0-16h-6.556l6.447-38.685a8,8,0,0,0-15.782-2.63l-8,48A8,8,0,0,0,248,280Z"/><path d="M308.024,297.085a8,8,0,0,0-10.939,2.891C285.349,320.143,273.83,328,256,328s-29.349-7.857-41.085-28.024a8,8,0,0,0-13.83,8.048C210.833,324.774,225.885,344,256,344c12.952,0,23.889-3.4,33.435-10.406,7.854-5.761,14.679-13.886,21.48-25.57A8,8,0,0,0,308.024,297.085Z"/><circle cx="192" cy="248" r="16"/><circle cx="320" cy="248" r="16"/></svg>
