<?xml version="1.0"?>
<svg xmlns="http://www.w3.org/2000/svg" id="Filled" viewBox="0 0 512 512" width="512" height="512"><path d="M256,40C145.543,40,56,140.288,56,264v8H456v-8C456,140.288,366.457,40,256,40Z" style="fill:#58453f"/><ellipse cx="80" cy="272" rx="32" ry="40" style="fill:#dda37b"/><ellipse cx="432" cy="272" rx="32" ry="40" style="fill:#dda37b"/><path d="M364,176c-86.2,0-159.521-29.679-172-72C129.839,132.161,88,198.642,88,279.707,88,385.746,163.216,472,256,472s168-86.254,168-192.293a213.774,213.774,0,0,0-17-84.189,32.548,32.548,0,0,0-31.248-19.734Q369.927,176,364,176Z" style="fill:#e1b293"/><ellipse cx="152" cy="288" rx="24" ry="16" style="fill:#dd9c7b"/><ellipse cx="360" cy="288" rx="24" ry="16" style="fill:#dd9c7b"/><path d="M152,256a8,8,0,0,0,8-8,24.027,24.027,0,0,1,24-24,8,8,0,0,0,0-16,40.045,40.045,0,0,0-40,40A8,8,0,0,0,152,256Z"/><path d="M328,208a8,8,0,0,0,0,16,24.027,24.027,0,0,1,24,24,8,8,0,0,0,16,0A40.045,40.045,0,0,0,328,208Z"/><path d="M248,288h16a8,8,0,0,0,0-16h-6.556l6.447-38.685a8,8,0,1,0-15.782-2.63l-8,48A8,8,0,0,0,248,288Z"/><path d="M80,320a34.055,34.055,0,0,0,3.543-.208C99.9,411.092,171.013,480,256,480s156.1-68.908,172.457-160.208A34.055,34.055,0,0,0,432,320c22.056,0,40-21.532,40-48a53.918,53.918,0,0,0-9.083-30.42l.124-.011c-4.9-56.985-28.512-109.758-66.481-148.6C358.125,53.652,308.207,32,256,32c-52.308,0-102.3,21.726-140.761,61.176C77.327,132.06,53.8,184.825,48.945,241.791A53.949,53.949,0,0,0,40,272C40,298.468,57.944,320,80,320Zm0-16c-13.234,0-24-14.355-24-32s10.766-32,24-32a18.024,18.024,0,0,1,3.319.317A233.2,233.2,0,0,0,80,279.707a229,229,0,0,0,1.292,24.242C80.862,303.98,80.432,304,80,304ZM256,464c-88.224,0-160-82.674-160-184.293,0-37.83,9.524-73.643,27.543-103.565,15.99-26.555,38.054-47.553,64.147-61.152,9.245,19.289,29.63,35.849,59.6,48.271C279.559,176.635,321.007,184,364,184c3.968,0,8.019-.074,12.04-.222a24.532,24.532,0,0,1,23.6,14.889A204.655,204.655,0,0,1,416,279.707C416,381.326,344.224,464,256,464ZM432,304c-.432,0-.862-.02-1.292-.051a229.366,229.366,0,0,0-2.1-63.617A18.126,18.126,0,0,1,432,240c13.234,0,24,14.355,24,32S445.234,304,432,304ZM126.7,104.346C162.121,68.011,208.042,48,256,48c47.864,0,93.719,19.942,129.118,56.154,31.754,32.482,52.728,75.51,60.013,122.516a33.26,33.26,0,0,0-19.869-1.965,216.557,216.557,0,0,0-10.913-32.335,40.4,40.4,0,0,0-38.894-24.581c-3.826.141-7.681.211-11.455.211-40.939,0-80.212-6.933-110.582-19.52-29.358-12.168-48.445-28.768-53.745-46.743A8,8,0,0,0,188.7,96.713C156.31,111.386,129.04,136,109.836,167.888a205.164,205.164,0,0,0-23.26,56.784,33.253,33.253,0,0,0-19.7,2C74.141,179.76,95.037,136.815,126.7,104.346Z"/><circle cx="192" cy="256" r="16"/><circle cx="320" cy="256" r="16"/><path d="M290.257,322.43C283.421,329.478,274.54,336,256,336s-27.421-6.522-34.257-13.57a8,8,0,0,0-11.486,11.14C222.621,346.316,236.728,352,256,352s33.379-5.684,45.743-18.43a8,8,0,0,0-11.486-11.14Z"/></svg>
