<?xml version="1.0"?>
<svg xmlns="http://www.w3.org/2000/svg" id="Filled" viewBox="0 0 512 512" width="512" height="512"><path d="M163.121,440H65.185C65.185,392,32,392,32,344c0-30,12.963-41.25,22.685-57.188L65.564,228.3C71.821,132.133,154.69,56,256,56s184.179,76.133,190.436,172.3L457.924,287.8C467.569,303.225,480,314.622,480,344c0,48-33.185,48-33.185,96H348.884" style="fill:#a32d1e"/><ellipse cx="80" cy="263" rx="32" ry="40" style="fill:#a3633c"/><ellipse cx="432" cy="263" rx="32" ry="40" style="fill:#a3633c"/><path d="M120,168c-16.941,29.976-32,73.66-32,112,0,106.039,75.216,192,168,192s168-85.961,168-192c0-38.34-15.059-82.024-32-112H200l-16-64-16,64Z" style="fill:#a36f58"/><ellipse cx="152" cy="280" rx="24" ry="16" style="fill:#a25e3c"/><ellipse cx="360" cy="280" rx="24" ry="16" style="fill:#a25e3c"/><path d="M24,344c0,26.5,9.569,40.337,18.012,52.549C50.154,408.326,57.185,418.5,57.185,440a8,8,0,0,0,8,8h95.2C188.6,468.825,221.528,480,256,480s67.4-11.175,95.613-32h95.2a8,8,0,0,0,8-8c0-21.5,7.032-31.674,15.173-43.451C478.431,384.337,488,370.5,488,344s-9.569-40.338-18.012-52.55c-1.016-1.469-2-2.9-2.951-4.322A55.347,55.347,0,0,0,472,264c0-16.655-7.108-31.35-17.872-39.961C445.682,125.023,359.4,48,256,48S66.318,125.022,57.873,224.038C47.109,232.649,40,247.345,40,264a55.346,55.346,0,0,0,4.966,23.135c-.956,1.425-1.941,2.85-2.954,4.316C33.569,303.663,24,317.5,24,344Zm48.876,88c-1.7-21.407-10.154-33.63-17.7-44.549C47.031,375.674,40,365.5,40,344c0-21.118,6.782-31.306,14.736-42.819C61.629,307.938,70.426,312,80,312c.744,0,1.487-.038,2.228-.087,5.768,41.113,22.644,79.047,48.958,109.12q5.031,5.749,10.4,10.967ZM96,280c0-37.289,15-78.3,28.732-104H168a8,8,0,0,0,7.761-6.06L184,136.985l8.239,32.955A8,8,0,0,0,200,176H387.268C401,201.7,416,242.71,416,280c0,101.458-71.775,184-160,184S96,381.458,96,280Zm376,64c0,21.5-7.031,31.674-15.173,43.451-7.55,10.919-16,23.142-17.7,44.549H370.417q5.357-5.223,10.4-10.967c26.314-30.073,43.19-68.007,48.958-109.12.741.049,1.484.087,2.228.087,9.574,0,18.371-4.062,25.264-10.819C465.218,312.694,472,322.882,472,344Zm-40-48c-.187,0-.373-.016-.559-.022q.548-7.933.559-15.978a202.056,202.056,0,0,0-6.03-46.961A18.086,18.086,0,0,1,432,232c13.233,0,24,14.355,24,32S445.233,296,432,296ZM256,64c91.944,0,169.156,66,181.182,152.416A33.555,33.555,0,0,0,432,216a34.048,34.048,0,0,0-10.265,1.607,276.722,276.722,0,0,0-22.77-53.543A8,8,0,0,0,392,160H206.246l-14.485-57.94a8,8,0,0,0-15.522,0L161.754,160H120a8,8,0,0,0-6.965,4.064,276.722,276.722,0,0,0-22.77,53.543A34.016,34.016,0,0,0,80,216a33.445,33.445,0,0,0-5.183.417C86.844,130,164.056,64,256,64ZM80,232a18.086,18.086,0,0,1,6.03,1.039A202.056,202.056,0,0,0,80,280q0,8.043.559,15.978c-.186.006-.372.022-.559.022-13.234,0-24-14.355-24-32S66.766,232,80,232Z"/><path d="M152,247.707a8,8,0,0,0,8-8,24.027,24.027,0,0,1,24-24,8,8,0,0,0,0-16,40.045,40.045,0,0,0-40,40A8,8,0,0,0,152,247.707Z"/><path d="M328,216a24.027,24.027,0,0,1,24,24,8,8,0,0,0,16,0,40.045,40.045,0,0,0-40-40,8,8,0,0,0,0,16Z"/><path d="M248,280h16a8,8,0,0,0,0-16h-6.556l6.447-38.685a8,8,0,0,0-15.782-2.63l-8,48A8,8,0,0,0,248,280Z"/><path d="M308.024,297.085a8,8,0,0,0-10.938,2.891C285.35,320.143,273.83,328,256,328s-29.349-7.857-41.085-28.024a8,8,0,0,0-13.83,8.048C210.833,324.774,225.885,344,256,344c12.952,0,23.889-3.4,33.436-10.406,7.853-5.761,14.678-13.886,21.478-25.57A8,8,0,0,0,308.024,297.085Z"/><circle cx="192" cy="248" r="16"/><circle cx="320" cy="248" r="16"/></svg>
