<svg id="Filled" height="512" viewBox="0 0 512 512" width="512" xmlns="http://www.w3.org/2000/svg"><path d="m431.669 232h-351.338c-.745 0 0-24.6 0-25.352v-86.648a79.925 79.925 0 0 1 79.85-80h191.638a79.925 79.925 0 0 1 79.85 80v86.648c0 .752.745 25.352 0 25.352z" fill="#58453f"/><ellipse cx="80" cy="264" fill="#a3633c" rx="32" ry="40"/><ellipse cx="432" cy="264" fill="#a3633c" rx="32" ry="40"/><path d="m148 176c86.2 0 159.521-29.679 172-72 62.161 28.161 104 94.642 104 175.707 0 106.039-75.216 192.293-168 192.293s-168-86.254-168-192.293a213.774 213.774 0 0 1 17-84.189 32.548 32.548 0 0 1 31.248-19.734q5.825.216 11.752.216z" fill="#a36f58"/><ellipse cx="152.377" cy="280.002" fill="#a25e3c" rx="24" ry="16"/><ellipse cx="360" cy="279.707" fill="#a25e3c" rx="24" ry="16.147"/><path d="m152 248a8 8 0 0 0 8-8 24.027 24.027 0 0 1 24-24 8 8 0 0 0 0-16 40.045 40.045 0 0 0 -40 40 8 8 0 0 0 8 8z"/><path d="m328 200a8 8 0 0 0 0 16 24.028 24.028 0 0 1 24 24 8 8 0 0 0 16 0 40.045 40.045 0 0 0 -40-40z"/><path d="m248 280h16a8 8 0 0 0 0-16h-6.556l6.447-38.685a8 8 0 1 0 -15.782-2.63l-8 48a8 8 0 0 0 7.891 9.315z"/><path d="m439.905 216.946c-.068-3.676-.236-96.946-.236-96.946a88.025 88.025 0 0 0 -87.85-88h-191.638a88.025 88.025 0 0 0 -87.85 88s-.168 93.27-.236 96.945c-18.282 4.416-32.095 23.834-32.095 47.055 0 26.468 17.944 48 40 48 .764 0 1.525-.038 2.286-.089 13.577 95.189 86.299 168.089 173.714 168.089s160.137-72.9 173.714-168.089c.76.051 1.522.089 2.286.089 22.056 0 40-21.532 40-48 0-23.221-13.813-42.639-32.095-47.054zm-351.574-10.3v-86.646a72.006 72.006 0 0 1 71.85-72h191.638a72.006 72.006 0 0 1 71.85 72s.168 93.463.234 96.983c-.163.04-.321.095-.483.137a203.592 203.592 0 0 0 -21.257-49.233c-19.2-31.89-46.473-56.5-78.862-71.174a8 8 0 0 0 -10.975 5.024c-5.3 17.975-24.386 34.575-53.744 46.743-30.37 12.587-69.643 19.52-110.582 19.52-3.774 0-7.629-.07-11.455-.211a40.41 40.41 0 0 0 -38.894 24.581 216.6 216.6 0 0 0 -8.866 24.809c-.23-.061-.456-.139-.687-.2.065-3.52.148-6.784.194-8.592.025-.993.039-1.622.039-1.739zm-8.331 89.354c-13.234 0-24-14.355-24-32s10.766-32 24-32a18.041 18.041 0 0 1 4.894.687 225.815 225.815 0 0 0 -4.894 47.02q0 8.217.583 16.27c-.194.006-.388.023-.583.023zm176 168c-88.224 0-160-82.674-160-184.293a204.655 204.655 0 0 1 16.36-81.04 24.474 24.474 0 0 1 22.661-14.9q.468 0 .94.017c4.02.147 8.071.221 12.039.221 42.993 0 84.441-7.365 116.708-20.739 29.972-12.422 50.357-28.982 59.6-48.271 26.093 13.6 48.157 34.6 64.147 61.151 18.021 29.917 27.545 65.73 27.545 103.56 0 101.62-71.775 184.294-160 184.294zm176-168c-.195 0-.389-.017-.583-.023q.572-8.052.583-16.271a231.581 231.581 0 0 0 -4.77-47.056 18.04 18.04 0 0 1 4.77-.65c13.233 0 24 14.355 24 32s-10.767 32-24 32z"/><circle cx="192" cy="248" r="16"/><circle cx="320" cy="248" r="16"/><path d="m290.258 314.43c-6.837 7.048-15.718 13.57-34.258 13.57s-27.421-6.522-34.257-13.57a8 8 0 0 0 -11.486 11.14c12.364 12.746 26.471 18.43 45.743 18.43s33.379-5.684 45.742-18.43a8 8 0 1 0 -11.484-11.14z"/></svg>