<?xml version="1.0"?>
<svg xmlns="http://www.w3.org/2000/svg" id="Filled" viewBox="0 0 512 512" width="512" height="512"><path d="M456,256h-.181C452.044,136.341,364.057,48,256,48S59.956,136.341,56.181,256H56L32,448H480Z" style="fill:#351c05"/><ellipse cx="80" cy="256" rx="32" ry="40" style="fill:#a3633c"/><ellipse cx="432" cy="256" rx="32" ry="40" style="fill:#a3633c"/><path d="M372.346,160A31.878,31.878,0,0,1,401.4,178.532C414.141,206.459,424,240.979,424,272c0,106.039-75.216,192-168,192S88,378.039,88,272c0-31.022,9.859-65.542,22.6-93.468A31.878,31.878,0,0,1,139.654,160H312l16-64,16,64Z" style="fill:#a36f58"/><ellipse cx="152" cy="272" rx="24" ry="16" style="fill:#a25e3c"/><ellipse cx="360" cy="272" rx="24" ry="16" style="fill:#a25e3c"/><path d="M32,456H186.778a157.74,157.74,0,0,0,138.444,0H480a8,8,0,0,0,7.938-8.992L466.97,279.267A55.307,55.307,0,0,0,472,256a53.124,53.124,0,0,0-11.431-33.55c-8.525-51.536-33.523-98.075-70.412-131.067a200.828,200.828,0,0,0-268.314,0C84.954,124.375,59.956,170.914,51.431,222.45A53.124,53.124,0,0,0,40,256a55.317,55.317,0,0,0,5.029,23.266L24.062,447.008A8,8,0,0,0,32,456ZM96,272c0-26.811,7.973-59.669,21.875-90.148A23.918,23.918,0,0,1,139.654,168H312a8,8,0,0,0,7.761-6.06L328,128.985l8.239,32.955A8,8,0,0,0,344,168h28.346a23.918,23.918,0,0,1,21.779,13.852C408.027,212.332,416,245.189,416,272c0,74.755-38.969,139.234-94.769,168H320v.62A141.589,141.589,0,0,1,256,456C167.776,456,96,373.458,96,272Zm-16,0q0,8.043.559,15.978c-.186.006-.372.022-.559.022-13.234,0-24-14.355-24-32s10.766-32,24-32a18.084,18.084,0,0,1,6.068,1.053A204.109,204.109,0,0,0,80,272Zm376-16c0,17.645-10.766,32-24,32-.187,0-.373-.016-.559-.022q.548-7.933.559-15.978a204.043,204.043,0,0,0-6.069-46.946A18.066,18.066,0,0,1,432,224C445.234,224,456,238.355,456,256ZM351.613,440a184.126,184.126,0,0,0,29.2-26.967c26.314-30.073,43.19-68.007,48.958-109.12.741.049,1.484.087,2.228.087a35.03,35.03,0,0,0,21.038-7.2l17.9,143.2Zm-219.1-336.691a184.829,184.829,0,0,1,246.982,0c30.418,27.2,52.115,64.439,62.116,106.1A33.638,33.638,0,0,0,432,208a34.029,34.029,0,0,0-10.3,1.617,280.694,280.694,0,0,0-13.017-34.4A39.957,39.957,0,0,0,372.346,152h-22.1L335.761,94.06a8,8,0,0,0-15.522,0L305.754,152h-166.1a39.955,39.955,0,0,0-36.337,23.212A280.633,280.633,0,0,0,90.3,209.617,34.029,34.029,0,0,0,80,208a33.638,33.638,0,0,0-9.607,1.409C80.394,167.748,102.091,130.513,132.509,103.309ZM58.962,296.8A35.028,35.028,0,0,0,80,304c.744,0,1.487-.038,2.228-.087,5.768,41.113,22.644,79.047,48.958,109.12A184.126,184.126,0,0,0,160.387,440H41.062Z"/><path d="M152,239.707a8,8,0,0,0,8-8,24.027,24.027,0,0,1,24-24,8,8,0,0,0,0-16,40.045,40.045,0,0,0-40,40A8,8,0,0,0,152,239.707Z"/><path d="M328,208a24.027,24.027,0,0,1,24,24,8,8,0,0,0,16,0,40.045,40.045,0,0,0-40-40,8,8,0,0,0,0,16Z"/><path d="M248,272h16a8,8,0,0,0,0-16h-6.556l6.447-38.685a8,8,0,0,0-15.782-2.63l-8,48A8,8,0,0,0,248,272Z"/><path d="M308.024,289.085a8,8,0,0,0-10.939,2.891C285.349,312.143,273.83,320,256,320s-29.349-7.857-41.085-28.024a8,8,0,0,0-13.83,8.048C210.833,316.774,225.885,336,256,336c12.952,0,23.889-3.4,33.435-10.406,7.854-5.761,14.679-13.886,21.48-25.57A8,8,0,0,0,308.024,289.085Z"/><circle cx="192" cy="240" r="16"/><circle cx="320" cy="240" r="16"/></svg>
