<?xml version="1.0"?>
<svg xmlns="http://www.w3.org/2000/svg" id="Filled" viewBox="0 0 512 512" width="512" height="512"><ellipse cx="80" cy="264" rx="32" ry="40" style="fill:#a3633c"/><ellipse cx="432" cy="264" rx="32" ry="40" style="fill:#a3633c"/><path d="M424,279.707C424,385.746,348.784,472,256,472S88,385.746,88,279.707V240c0-88.384,87.132-152,168-152s168,63.615,168,152Z" style="fill:#a36f58"/><ellipse cx="152" cy="280" rx="24" ry="16" style="fill:#a25e3c"/><ellipse cx="360" cy="280" rx="24" ry="16" style="fill:#a25e3c"/><path d="M396.508,134.131c-6.425-9.6-2.939-27.42-11.075-35.556s-25.96-4.653-35.557-11.077c-9.523-6.377-13.09-24.2-23.8-28.644-10.531-4.368-25.642,5.667-37.089,3.4C277.873,60.058,267.754,40,256,40s-21.872,20.058-32.98,22.256c-11.445,2.264-26.555-7.772-37.085-3.405-10.714,4.442-14.281,22.266-23.8,28.641-9.6,6.425-27.42,2.939-35.556,11.075s-4.652,25.96-11.077,35.556C109.122,143.647,92.443,149.285,88,160v72c4.443-10.715,21.122-16.353,27.5-25.877,6.425-9.6,2.94-35.42,11.077-43.556s25.96,3.35,35.556-3.075c9.523-6.375,13.09-24.2,23.8-28.641,10.53-4.367,25.64,5.669,37.085,3.405C234.128,132.058,244.247,112,256,112s21.873,20.058,32.982,22.256c11.447,2.265,26.558-7.77,37.089-3.4,10.715,4.443,14.282,22.267,23.8,28.644,9.6,6.424,27.421,2.94,35.557,11.077s4.65,25.96,11.075,35.556c6.375,9.523,23.05,15.155,27.492,25.869V160C419.558,149.286,402.883,143.654,396.508,134.131Z" style="fill:#58453f"/><path d="M152,248a8,8,0,0,0,8-8,24.028,24.028,0,0,1,24-24,8,8,0,0,0,0-16,40.045,40.045,0,0,0-40,40A8,8,0,0,0,152,248Z"/><path d="M328,200a8,8,0,0,0,0,16,24.028,24.028,0,0,1,24,24,8,8,0,0,0,16,0A40.045,40.045,0,0,0,328,200Z"/><path d="M248,280h16a8,8,0,0,0,0-16h-6.557l6.449-38.685a8,8,0,0,0-15.784-2.63l-8,48A8,8,0,0,0,248,280Z"/><path d="M432,216V160a7.992,7.992,0,0,0-.61-3.064c-3.334-8.04-10.858-13.363-17.5-18.058-4.278-3.024-8.7-6.152-10.738-9.2h0c-1.933-2.889-2.676-8.223-3.395-13.381-1.116-8.012-2.382-17.093-8.67-23.381s-15.37-7.556-23.382-8.673c-5.158-.719-10.492-1.462-13.38-3.395-2.835-1.9-5.532-6.51-8.14-10.971-4.107-7.021-8.76-14.978-17.052-18.416-8.147-3.379-16.977-1.08-24.768.945-5.085,1.322-10.337,2.689-13.834,2-2.809-.555-7.381-5.064-11.054-8.687C272.96,39.289,265.569,32,256,32s-16.959,7.289-23.479,13.721c-3.672,3.623-8.244,8.132-11.053,8.687-3.492.688-8.748-.677-13.831-2-7.79-2.025-16.62-4.323-24.765-.947C174.58,54.9,169.926,62.855,165.82,69.876c-2.608,4.46-5.305,9.071-8.139,10.969-2.889,1.933-8.223,2.676-13.382,3.395-8.012,1.116-17.092,2.381-23.381,8.669s-7.555,15.37-8.671,23.382c-.719,5.158-1.463,10.492-3.4,13.381-2.039,3.046-6.462,6.175-10.741,9.2-6.639,4.7-14.166,10.022-17.5,18.063A7.992,7.992,0,0,0,80,160v56c-22.056,0-40,21.532-40,48s17.944,48,40,48c.764,0,1.526-.038,2.286-.089C95.863,407.1,168.585,480,256,480s160.137-72.9,173.714-168.089c.76.051,1.522.089,2.286.089,22.056,0,40-21.532,40-48S454.056,216,432,216ZM96,161.879c2.062-3.372,6.776-6.707,11.352-9.944,5.462-3.866,11.111-7.862,14.794-13.361,3.978-5.942,4.98-13.127,5.948-20.074.807-5.792,1.641-11.78,4.137-14.276s8.485-3.33,14.276-4.137c6.948-.968,14.132-1.969,20.074-5.946,5.889-3.943,9.529-10.167,13.051-16.188,2.971-5.08,6.044-10.334,9.369-11.712,3.182-1.322,8.99.192,14.606,1.652,6.507,1.693,13.881,3.614,20.964,2.211,7.523-1.488,13.452-7.336,19.186-12.993C247.872,53.052,252.994,48,256,48s8.129,5.052,12.244,9.111c5.735,5.657,11.664,11.505,19.186,12.993,7.084,1.4,14.46-.517,20.966-2.209,5.616-1.461,11.425-2.973,14.611-1.652,3.324,1.379,6.4,6.633,9.369,11.715,3.52,6.02,7.161,12.244,13.051,16.188,5.941,3.977,13.125,4.979,20.072,5.947,5.791.807,11.78,1.642,14.276,4.139s3.33,8.485,4.138,14.276c.968,6.947,1.969,14.132,5.947,20.073h0c3.683,5.5,9.332,9.5,14.8,13.36,4.574,3.235,9.286,6.568,11.346,9.938v50.5q-1.062-.762-2.106-1.5c-4.278-3.024-8.7-6.152-10.739-9.2-1.933-2.889-2.676-8.223-3.395-13.381-1.116-8.012-2.382-17.093-8.67-23.381s-15.37-7.556-23.382-8.673c-5.158-.719-10.492-1.462-13.38-3.4-2.835-1.9-5.532-6.51-8.14-10.971-4.107-7.021-8.76-14.978-17.052-18.416a23.761,23.761,0,0,0-9.208-1.72c-5.312,0-10.643,1.387-15.56,2.665-5.085,1.322-10.337,2.689-13.834,2-2.809-.555-7.381-5.064-11.054-8.687C272.96,111.289,265.569,104,256,104s-16.959,7.289-23.479,13.721c-3.672,3.623-8.244,8.132-11.053,8.687-3.492.689-8.748-.677-13.831-2-7.79-2.026-16.62-4.324-24.765-.947-8.292,3.437-12.946,11.394-17.052,18.415-2.608,4.46-5.305,9.071-8.139,10.969-1.988,1.328-7.41.467-11.767-.223-7.962-1.264-17.871-2.838-25,4.287-6.366,6.366-7.546,17.348-8.687,27.967-.669,6.233-1.5,13.992-3.38,16.8-2.039,3.046-6.462,6.175-10.741,9.2q-1.042.738-2.11,1.5ZM80,296c-13.233,0-24-14.355-24-32s10.767-32,24-32v47.707q0,8.217.583,16.27C80.389,295.983,80.195,296,80,296Zm336-16.293C416,381.326,344.225,464,256,464S96,381.326,96,279.707V240c0-2.129.067-4.264.176-6.394,2.143-3.279,6.724-6.521,11.176-9.67,5.462-3.866,11.111-7.862,14.794-13.361,4.07-6.079,5-14.779,5.994-23.989.684-6.366,1.717-15.987,4.091-18.361,1.359-1.358,7.033-.458,11.175.2,7.488,1.187,15.977,2.534,23.175-2.283,5.889-3.943,9.529-10.167,13.051-16.188,2.971-5.08,6.044-10.334,9.369-11.712,3.182-1.321,8.99.192,14.606,1.652,6.507,1.694,13.881,3.614,20.964,2.211,7.523-1.488,13.452-7.336,19.186-12.993C247.872,125.052,252.994,120,256,120s8.129,5.052,12.244,9.111c5.735,5.657,11.664,11.505,19.186,12.993,7.084,1.4,14.46-.517,20.966-2.209,5.616-1.461,11.425-2.973,14.611-1.652,3.324,1.379,6.4,6.633,9.369,11.715,3.52,6.02,7.161,12.244,13.051,16.188,5.941,3.977,13.125,4.979,20.072,5.947,5.791.807,11.78,1.642,14.276,4.139s3.33,8.485,4.138,14.276c.968,6.947,1.969,14.132,5.946,20.073,3.683,5.5,9.332,9.5,14.8,13.36,4.449,3.147,9.028,6.387,11.17,9.664.109,2.13.176,4.265.176,6.394ZM432,296c-.195,0-.389-.017-.583-.023q.572-8.052.583-16.27V232c13.233,0,24,14.355,24,32S445.233,296,432,296Z"/><circle cx="192" cy="248" r="16"/><circle cx="320" cy="248" r="16"/><path d="M290.258,314.43C283.421,321.478,274.54,328,256,328s-27.421-6.522-34.258-13.57a8,8,0,0,0-11.484,11.14C222.621,338.316,236.729,344,256,344s33.379-5.684,45.742-18.43a8,8,0,1,0-11.484-11.14Z"/></svg>
