<?xml version="1.0"?>
<svg xmlns="http://www.w3.org/2000/svg" id="Filled" viewBox="0 0 512 512" width="512" height="512"><path d="M136,409v8a64,64,0,0,1-64,64H56V217C56,115.38,145.543,33,256,33s200,82.38,200,184V481H440a64,64,0,0,1-64-64v-8Z" style="fill:#cf7644"/><path d="M424,217c-65.649-36.825-129.914-87.58-168-136-38.086,48.421-102.351,99.176-168,136v56c0,106.039,75.216,192,168,192s168-85.961,168-192Z" style="fill:#a36f58"/><ellipse cx="152" cy="273" rx="24" ry="16" style="fill:#a25e3c"/><ellipse cx="360" cy="273" rx="24" ry="16" style="fill:#a25e3c"/><path d="M152,239.707a8,8,0,0,0,8-8,24.027,24.027,0,0,1,24-24,8,8,0,0,0,0-16,40.045,40.045,0,0,0-40,40A8,8,0,0,0,152,239.707Z"/><path d="M328,192a8,8,0,0,0,0,16,24.027,24.027,0,0,1,24,24,8,8,0,0,0,16,0A40.045,40.045,0,0,0,328,192Z"/><path d="M248,272h16a8,8,0,0,0,0-16h-6.556l6.447-38.685a8,8,0,0,0-15.782-2.63l-8,48A8,8,0,0,0,248,272Z"/><path d="M308.024,289.085a8,8,0,0,0-10.939,2.891C285.349,312.143,273.83,320,256,320s-29.349-7.857-41.085-28.024a8,8,0,0,0-13.83,8.048C210.833,316.774,225.885,336,256,336c12.952,0,23.889-3.4,33.435-10.406,7.854-5.761,14.679-13.886,21.48-25.57A8,8,0,0,0,308.024,289.085Z"/><path d="M72,488a72.1,72.1,0,0,0,71.331-62.319C174.892,455.669,214.318,472,256,472s81.108-16.331,112.669-46.319A72.1,72.1,0,0,0,440,488h16a8,8,0,0,0,8-8V216c0-51.412-21.721-99.709-61.162-135.995C363.582,43.89,311.434,24,256,24S148.418,43.89,109.162,80.005C69.721,116.291,48,164.588,48,216V480a8,8,0,0,0,8,8Zm184-32c-88.224,0-160-82.542-160-184V220.667c63.942-36.445,122.76-83.547,160-127.982,37.24,44.434,96.058,91.537,160,127.982V272C416,373.458,344.224,456,256,456ZM64,216c0-97.047,86.131-176,192-176s192,78.953,192,176V472h-8a56.064,56.064,0,0,1-56-56v-6.7c30.988-37.263,48-85.81,48-137.3V216a8,8,0,0,0-4.086-6.977C360.4,171.151,298.482,121.07,262.288,75.054a8,8,0,0,0-12.576,0c-36.195,46.016-98.111,96.1-165.626,133.969A8,8,0,0,0,80,216v56c0,51.485,17.012,100.032,48,137.3V416a56.064,56.064,0,0,1-56,56H64Z"/><circle cx="192" cy="240" r="16"/><circle cx="320" cy="240" r="16"/></svg>
