<svg id="Filled" height="512" viewBox="0 0 512 512" width="512" xmlns="http://www.w3.org/2000/svg"><path d="m56 264c0-123.712 89.543-208 200-208s200 84.288 200 208z" fill="#dea634"/><ellipse cx="80" cy="264" fill="#e6bfa5" rx="32" ry="40"/><ellipse cx="432" cy="264" fill="#e6bfa5" rx="32" ry="40"/><ellipse cx="256" cy="280" fill="#e6cbb8" rx="168" ry="192"/><ellipse cx="152" cy="280" fill="#e6b7a5" rx="24" ry="16"/><ellipse cx="360" cy="280" fill="#e6b7a5" rx="24" ry="16"/><path d="m328 40h-144a80 80 0 0 0 -80 80v16h304v-16a80 80 0 0 0 -80-80z" fill="#a32d1e"/><rect fill="#cf7644" height="32" rx="16" width="400" x="56" y="120"/><path d="m440.343 159.991a24 24 0 0 0 -.343-47.991h-24.367a88.118 88.118 0 0 0 -87.633-80h-144a88.118 88.118 0 0 0 -87.633 80h-24.367a24 24 0 0 0 -.344 47.991 222.4 222.4 0 0 0 -21.677 72.34 53.6 53.6 0 0 0 -9.979 31.669c0 26.468 17.944 48 40 48 .744 0 1.487-.038 2.228-.087 5.772 41.113 22.644 79.047 48.958 109.119 33.272 38.027 77.599 58.968 124.814 58.968s91.542-20.941 124.814-58.968c26.314-30.072 43.191-68.006 48.958-109.119.741.049 1.484.087 2.228.087 22.056 0 40-21.532 40-48a53.6 53.6 0 0 0 -9.979-31.669 222.382 222.382 0 0 0 -21.678-72.34zm-43.528.009h25.45a201.084 201.084 0 0 1 21.211 58.023 33.436 33.436 0 0 0 -20.353-.817 210.285 210.285 0 0 0 -26.308-57.206zm-212.815-112h144a72.1 72.1 0 0 1 71.545 64h-287.09a72.1 72.1 0 0 1 71.545-64zm-120 88a8.009 8.009 0 0 1 8-8h368a8 8 0 0 1 0 16h-368a8.009 8.009 0 0 1 -8-8zm24.877 81.206a33.44 33.44 0 0 0 -20.354.817 201.108 201.108 0 0 1 21.212-58.023h25.45a210.285 210.285 0 0 0 -26.308 57.206zm-8.877 78.794c-13.234 0-24-14.355-24-32s10.766-32 24-32a18.036 18.036 0 0 1 4.984.713 226.444 226.444 0 0 0 -4.984 47.287q0 8.043.559 15.978c-.186.006-.372.022-.559.022zm176 168c-88.224 0-160-82.542-160-184 0-44.173 13.729-86.622 38.729-120h242.542c25 33.377 38.729 75.827 38.729 120 0 101.458-71.775 184-160 184zm176-168c-.187 0-.373-.016-.559-.022q.548-7.933.559-15.978a226.444 226.444 0 0 0 -4.984-47.287 18.036 18.036 0 0 1 4.984-.713c13.233 0 24 14.355 24 32s-10.767 32-24 32z"/><path d="m152 248a8 8 0 0 0 8-8 24.027 24.027 0 0 1 24-24 8 8 0 0 0 0-16 40.045 40.045 0 0 0 -40 40 8 8 0 0 0 8 8z"/><path d="m328 216a24.028 24.028 0 0 1 24 24 8 8 0 0 0 16 0 40.045 40.045 0 0 0 -40-40 8 8 0 0 0 0 16z"/><path d="m248 280h16a8 8 0 0 0 0-16h-6.556l6.447-38.685a8 8 0 1 0 -15.782-2.63l-8 48a8 8 0 0 0 7.891 9.315z"/><circle cx="192" cy="248" r="16"/><circle cx="320" cy="248" r="16"/><path d="m290.258 314.43c-6.837 7.048-15.718 13.57-34.258 13.57s-27.421-6.522-34.257-13.57a8 8 0 0 0 -11.486 11.14c12.364 12.746 26.471 18.43 45.743 18.43s33.379-5.684 45.742-18.43a8 8 0 1 0 -11.484-11.14z"/></svg>