<?xml version="1.0"?>
<svg xmlns="http://www.w3.org/2000/svg" id="Filled" viewBox="0 0 512 512" width="512" height="512"><path d="M360,429.532A81.769,81.769,0,0,0,400,440c48.6,0,88-42.981,88-96h-8c-29.611,0-44.685-16.088-51.407-40L448,232c0-106.039-85.961-192-192-192S64,125.961,64,232l19.407,72c-6.722,23.912-21.8,40-51.407,40H24c0,53.019,39.4,96,88,96a81.769,81.769,0,0,0,40-10.468Z" style="fill:#351c05"/><ellipse cx="80" cy="264" rx="32" ry="40" style="fill:#e6bfa5"/><ellipse cx="432" cy="264" rx="32" ry="40" style="fill:#e6bfa5"/><path d="M424,224,224,88,88,224v56c0,106.039,75.216,192,168,192s168-85.961,168-192Z" style="fill:#e6cbb8"/><ellipse cx="152" cy="280" rx="24" ry="16" style="fill:#e6b7a5"/><ellipse cx="360" cy="280" rx="24" ry="16" style="fill:#e6b7a5"/><path d="M152,247.707a8,8,0,0,0,8-8,24.027,24.027,0,0,1,24-24,8,8,0,0,0,0-16,40.045,40.045,0,0,0-40,40A8,8,0,0,0,152,247.707Z"/><path d="M328,216a24.027,24.027,0,0,1,24,24,8,8,0,0,0,16,0,40.045,40.045,0,0,0-40-40,8,8,0,0,0,0,16Z"/><path d="M248,280h16a8,8,0,0,0,0-16h-6.556l6.447-38.685a8,8,0,0,0-15.782-2.63l-8,48A8,8,0,0,0,248,280Z"/><path d="M308.024,297.085a8,8,0,0,0-10.938,2.891C285.35,320.143,273.83,328,256,328s-29.349-7.857-41.085-28.024a8,8,0,0,0-13.83,8.048C210.833,324.774,225.885,344,256,344c12.952,0,23.889-3.4,33.436-10.406,7.853-5.761,14.678-13.886,21.478-25.57A8,8,0,0,0,308.024,297.085Z"/><circle cx="192" cy="248" r="16"/><circle cx="320" cy="248" r="16"/><path d="M112,448a90.165,90.165,0,0,0,37.855-8.413C180.248,465.8,217.143,480,256,480s75.752-14.2,106.145-40.413A90.165,90.165,0,0,0,400,448c52.935,0,96-46.654,96-104a8,8,0,0,0-8-8h-8c-19.916,0-32.955-7.965-40.409-24.878C458.028,306.853,472,287.352,472,264c0-15.514-6.17-29.324-15.715-38.1C453.046,118.216,364.45,31.613,256,31.613S58.954,118.215,55.715,225.9C46.17,234.676,40,248.486,40,264c0,23.352,13.972,42.853,32.409,47.122C64.956,328.036,51.917,336,32,336H24a8,8,0,0,0-8,8C16,401.346,59.065,448,112,448ZM96,280V227.314L224.976,98.338,416,228.234V280c0,101.458-71.775,184-160,184S96,381.458,96,280Zm383.672,72c-3.684,44.79-38.01,80-79.672,80a72.9,72.9,0,0,1-25.177-4.437q3.051-3.178,5.991-6.53c23.831-27.235,39.927-60.916,47.038-97.568C438.309,342.329,455.667,351.914,479.672,352ZM432,296c-.187,0-.373-.016-.559-.022q.548-7.933.559-15.978V232c13.233,0,24,14.355,24,32S445.233,296,432,296ZM256,48.387c96.108,0,175.2,74.225,182.975,168.359A33.545,33.545,0,0,0,432,216h-5.538L228.5,81.385a8,8,0,0,0-10.156.958L84.687,216H80a33.545,33.545,0,0,0-6.975.746C80.805,122.612,159.893,48.387,256,48.387ZM56,264c0-17.645,10.766-32,24-32v48q0,8.043.559,15.978c-.186.006-.372.022-.559.022C66.766,296,56,281.645,56,264Zm28.148,59.466c7.111,36.651,23.207,70.332,47.038,97.567q2.937,3.357,5.99,6.53A72.889,72.889,0,0,1,112,432c-41.662,0-75.988-35.21-79.672-80C56.333,351.914,73.691,342.329,84.148,323.466Z"/></svg>
