<?xml version="1.0"?>
<svg xmlns="http://www.w3.org/2000/svg" id="Filled" viewBox="0 0 512 512" width="512" height="512"><ellipse cx="80" cy="254" rx="32" ry="40" style="fill:#a3633c"/><ellipse cx="432" cy="254" rx="32" ry="40" style="fill:#a3633c"/><ellipse cx="256" cy="270" rx="168" ry="192" style="fill:#a36f58"/><ellipse cx="152" cy="270" rx="24" ry="16" style="fill:#a25e3c"/><ellipse cx="360" cy="270" rx="24" ry="16" style="fill:#a25e3c"/><path d="M408,190l8-144c-20.018,0-20.018,16-40.036,16s-20.017-16-40.035-16-20,16-40.008,16c-19.987,0-19.987-16-39.973-16s-20,16-40,16S195.96,46,175.968,46s-19.992,16-39.984,16S115.992,46,96,46l8,144C200,126,312,126,408,190Z" style="fill:#351c05"/><path d="M152,238a8,8,0,0,0,8-8,24.028,24.028,0,0,1,24-24,8,8,0,0,0,0-16,40.045,40.045,0,0,0-40,40A8,8,0,0,0,152,238Z"/><path d="M328,206a24.028,24.028,0,0,1,24,24,8,8,0,0,0,16,0,40.045,40.045,0,0,0-40-40,8,8,0,0,0,0,16Z"/><path d="M248,270h16a8,8,0,0,0,0-16h-6.557l6.449-38.685a8,8,0,0,0-15.784-2.63l-8,48A8,8,0,0,0,248,270Z"/><path d="M432,206a33.944,33.944,0,0,0-8.838,1.195q-2.993-10.263-6.983-20.2l7.808-140.551A8,8,0,0,0,416,38c-12.813,0-19.577,5.406-25.013,9.751C386.448,51.379,383.169,54,375.965,54s-10.485-2.621-15.024-6.249C355.506,43.406,348.741,38,335.929,38s-19.569,5.407-25,9.753c-4.7,3.762-7.811,6.247-15.007,6.247s-10.289-2.484-14.986-6.245C275.505,43.409,268.749,38,255.947,38s-19.564,5.408-25,9.753c-4.7,3.762-7.807,6.247-15,6.247s-10.294-2.484-14.993-6.246C195.528,43.408,188.771,38,175.968,38s-19.562,5.408-24.991,9.754c-4.7,3.762-7.8,6.246-14.993,6.246s-10.294-2.484-14.993-6.246C115.561,43.408,108.8,38,96,38a8,8,0,0,0-7.987,8.443l7.811,140.6Q91.878,196.9,88.89,207.21A33.957,33.957,0,0,0,80,206c-22.056,0-40,21.532-40,48s17.944,48,40,48c.744,0,1.487-.038,2.228-.087C88,343.026,104.872,380.96,131.186,411.032,164.458,449.059,208.784,470,256,470s91.542-20.941,124.814-58.968c26.314-30.072,43.191-68.006,48.958-109.119.741.049,1.484.087,2.228.087,22.056,0,40-21.532,40-48S454.056,206,432,206ZM110.993,60.246C116.424,64.592,123.182,70,135.984,70s19.561-5.408,24.991-9.754c4.7-3.762,7.8-6.246,14.993-6.246s10.294,2.484,14.993,6.246C196.392,64.592,203.149,70,215.952,70s19.565-5.408,25-9.754c4.7-3.761,7.807-6.246,15-6.246s10.29,2.484,14.989,6.245C276.364,64.592,283.12,70,295.921,70s19.568-5.407,25-9.753c4.7-3.762,7.81-6.247,15.007-6.247s10.483,2.621,15.022,6.249c5.436,4.345,12.2,9.751,25.014,9.751s19.577-5.406,25.013-9.751a35.557,35.557,0,0,1,6.466-4.463L400.77,175.925C355.405,148.454,305.63,134,256,134s-99.4,14.454-144.77,41.925L104.556,55.773A36.134,36.134,0,0,1,110.993,60.246ZM80,286c-13.233,0-24-14.355-24-32s10.767-32,24-32a18.029,18.029,0,0,1,4.983.713A227.173,227.173,0,0,0,80,270q0,8.043.559,15.978C80.373,285.984,80.187,286,80,286ZM256,454c-88.225,0-160-82.542-160-184a208.614,208.614,0,0,1,13.515-74.049C155.022,165.891,205.645,150,256,150s100.988,15.894,146.5,45.96A205.584,205.584,0,0,1,416,270C416,371.458,344.225,454,256,454ZM432,286c-.187,0-.373-.016-.559-.022q.548-7.933.559-15.978a226.337,226.337,0,0,0-4.937-47.3A18.041,18.041,0,0,1,432,222c13.233,0,24,14.355,24,32S445.233,286,432,286Z"/><circle cx="192" cy="238" r="16"/><circle cx="320" cy="238" r="16"/><path d="M290.258,304.43C283.421,311.478,274.54,318,256,318s-27.421-6.522-34.258-13.57a8,8,0,0,0-11.484,11.14C222.621,328.316,236.729,334,256,334s33.379-5.684,45.742-18.43a8,8,0,1,0-11.484-11.14Z"/></svg>
