<svg id="Filled" height="512" viewBox="0 0 512 512" width="512" xmlns="http://www.w3.org/2000/svg"><g fill="#aa9b8b"><path d="m384 256h64l32 224a96 96 0 0 1 -96-96z"/><path d="m64 256h64v128a96 96 0 0 1 -96 96z"/><path d="m256 32c-110.457 0-200 92.288-200 216v32h400v-32c0-123.712-89.543-216-200-216z"/></g><ellipse cx="80" cy="240" fill="#fedac5" rx="32" ry="40"/><ellipse cx="432" cy="240" fill="#fedac5" rx="32" ry="40"/><path d="m423.333 280h24a16 16 0 0 1 16 16 16 16 0 0 1 -16 16h-383.333a16 16 0 0 1 -16-16 16 16 0 0 1 16-16z" fill="#a32d1e"/><path d="m424 256c0 106.039-75.216 192-168 192s-168-85.961-168-192c0-41.759 16-104 24-104 56 0 160-56 192-88 0 0 32 88 112.447 134.905 7.033 2.964 7.553 37.213 7.553 57.095z" fill="#fee8d6"/><ellipse cx="152" cy="256" fill="#fed4c5" rx="24" ry="16"/><ellipse cx="360" cy="256" fill="#fed4c5" rx="24" ry="16"/><path d="m25.956 485.242a8 8 0 0 0 6.044 2.758 104.162 104.162 0 0 0 102.627-87.145c32.857 35.602 75.766 55.145 121.373 55.145s88.516-19.543 121.373-55.145a104.162 104.162 0 0 0 102.627 87.145 8 8 0 0 0 7.92-9.131l-23.692-165.842a23.968 23.968 0 0 0 -5.029-37.875c7.866-8.772 12.801-21.281 12.801-35.152a53.143 53.143 0 0 0 -11.373-33.476c-8.473-51.26-33.188-97.551-69.769-130.541a200.921 200.921 0 0 0 -269.716 0c-36.581 32.99-61.3 79.281-69.77 130.541a53.148 53.148 0 0 0 -11.372 33.476c0 13.739 4.843 26.139 12.578 34.9a23.974 23.974 0 0 0 -4.886 38.689l-23.612 165.28a8 8 0 0 0 1.876 6.373zm230.044-45.242c-88.225 0-160-82.542-160-184 0-37.994 12.762-86.193 18.778-96.037 53.606-1.383 146.269-41.856 186.459-74.753 11.6 23.557 45.446 82.1 110.722 120.338 1.4 2.69 4.041 12.771 4.041 50.452 0 101.458-71.775 184-160 184zm-192-136a8 8 0 0 1 0-16h18.24q1.137 8.087 2.839 16zm-8-64c0-17.645 10.767-32 24-32a18.023 18.023 0 0 1 4.646.614c-2.969 17.023-4.646 33.771-4.646 47.386q0 8.043.559 15.978c-.186.006-.372.022-.559.022-13.233 0-24-14.355-24-32zm400 0c0 17.645-10.767 32-24 32-.187 0-.373-.016-.559-.022q.548-7.932.559-15.978c0-23.344-.964-38.206-2.818-47.776a18.113 18.113 0 0 1 2.818-.224c13.233 0 24 14.355 24 32zm-8.667 48a8 8 0 1 1 0 16h-20.412q1.705-7.907 2.839-16zm23.373 183.513a88.129 88.129 0 0 1 -78.706-87.513h-.744a207.2 207.2 0 0 0 31.575-64h24.5c.578 0 1.15-.028 1.719-.068zm-338.85-383.648a184.924 184.924 0 0 1 248.288 0c30.133 27.175 51.6 64.174 61.531 105.563a33.648 33.648 0 0 0 -9.675-1.428 34.018 34.018 0 0 0 -9.447 1.37 11.316 11.316 0 0 0 -2.412-1.573c-76.732-44.91-108.405-122-108.713-122.768a8 8 0 0 0 -13.085-2.686c-14.96 14.96-47.346 34.24-84.518 50.314-40.184 17.377-77.298 27.343-101.825 27.343-7.312 0-11.31 7.391-14.541 15.377a200.825 200.825 0 0 0 -8.237 27.092c-.513 2.132-1 4.284-1.477 6.442a33.44 33.44 0 0 0 -17.42.517c9.934-41.389 31.398-78.388 61.531-105.563zm-68.914 232.108c.351.015.7.027 1.058.027h25.169a207.2 207.2 0 0 0 31.575 64h-.744a88.129 88.129 0 0 1 -78.706 87.513z"/><path d="m152 223.707a8 8 0 0 0 8-8 24.027 24.027 0 0 1 24-24 8 8 0 0 0 0-16 40.045 40.045 0 0 0 -40 40 8 8 0 0 0 8 8z"/><path d="m328 176a8 8 0 0 0 0 16 24.027 24.027 0 0 1 24 24 8 8 0 0 0 16 0 40.045 40.045 0 0 0 -40-40z"/><path d="m248 256h16a8 8 0 0 0 0-16h-6.557l6.449-38.685a8 8 0 0 0 -15.784-2.63l-8 48a8 8 0 0 0 7.892 9.315z"/><path d="m308.024 273.085a8 8 0 0 0 -10.938 2.891c-11.736 20.167-23.256 28.024-41.086 28.024s-29.35-7.857-41.086-28.024a8 8 0 1 0 -13.828 8.048c9.748 16.75 24.799 35.976 54.914 35.976 12.952 0 23.889-3.4 33.436-10.406 7.853-5.761 14.678-13.886 21.478-25.57a8 8 0 0 0 -2.89-10.939z"/><circle cx="192" cy="224" r="16"/><circle cx="320" cy="224" r="16"/></svg>