<?xml version="1.0" encoding="iso-8859-1"?>
<!-- Generator: Adobe Illustrator 19.0.0, SVG Export Plug-In . SVG Version: 6.00 Build 0)  -->
<svg version="1.1" id="Capa_1" xmlns="http://www.w3.org/2000/svg" xmlns:xlink="http://www.w3.org/1999/xlink" x="0px" y="0px"
	 viewBox="0 0 470.8 470.8" style="enable-background:new 0 0 470.8 470.8;" xml:space="preserve">
<g>
	<path style="fill:#3AA2EB;" d="M315.405,446.8v9.92c-3.952-2.592-7.328-5.968-9.92-9.92H315.405z"/>
	<path style="fill:#3AA2EB;" d="M315.405,396.88v9.92h-9.92C308.077,402.848,311.454,399.472,315.405,396.88z"/>
	<path style="fill:#3AA2EB;" d="M448.525,41.12c10.405-0.002,18.842,8.432,18.843,18.837c0.002,10.405-8.431,18.842-18.837,18.843
		c-0.002,0-0.005,0-0.007,0h-50.24c-10.405,0.002-18.842-8.432-18.843-18.837c-0.002-10.405,8.431-18.842,18.837-18.843
		c0.002,0,0.005,0,0.007,0c1.459-0.022,2.914,0.167,4.32,0.56c5.401-11.488,19.091-16.422,30.579-11.021
		c4.845,2.278,8.743,6.176,11.021,11.021C445.611,41.287,447.066,41.098,448.525,41.12L448.525,41.12z"/>
	<path style="fill:#3AA2EB;" d="M431.405,390.8c19.882,0,36,16.118,36,36s-16.118,36-36,36h-96c-7.121-0.004-14.081-2.12-20-6.08
		v-59.84c5.919-3.96,12.879-6.076,20-6.08c2.805,0.016,5.598,0.365,8.32,1.04c10.449-21.915,36.686-31.209,58.6-20.76
		c9.094,4.336,16.423,11.665,20.76,20.76C425.808,391.165,428.6,390.816,431.405,390.8L431.405,390.8z"/>
	<path style="fill:#3AA2EB;" d="M131.405,222.8c17.673-0.065,32.053,14.209,32.118,31.882c0.065,17.673-14.209,32.053-31.882,32.118
		c-11.309,0.042-21.8-5.889-27.596-15.6c-7.259,4.961-15.848,7.61-24.64,7.6c-8.297-0.019-16.421-2.376-23.44-6.8
		c-7.317,13.593-24.268,18.682-37.861,11.365c-13.593-7.317-18.682-24.268-11.365-37.861c4.884-9.073,14.362-14.723,24.666-14.704
		c1.393,0.05,2.783,0.184,4.16,0.4c2.032-24.215,23.31-42.199,47.525-40.166c18.803,1.578,34.506,14.969,39.035,33.286
		C125.128,223.362,128.254,222.85,131.405,222.8L131.405,222.8z"/>
</g>
<path style="fill:#D32144;" d="M139.405,33.12l-22.8,22.24l5.36,31.44L93.725,72l-28.16,14.8l5.36-31.44l-22.8-22.24l31.52-4.56
	L93.725,0l14.16,28.56L139.405,33.12z"/>
<path style="fill:#00214D;" d="M280.253,142.152l-56-24c-0.935-0.401-1.785-0.977-2.504-1.696l-48-48l11.312-11.312l46.912,46.904
	l54.584,23.4L280.253,142.152z"/>
<path style="fill:#003170;" d="M331.357,133.912c-0.452-4.05-3.877-7.113-7.952-7.112h-40c-4.418,0-8,3.581-8.001,7.999
	c0,0.294,0.016,0.588,0.049,0.881l8,72l7.952-0.88h24v8h16c4.418,0.022,8.018-3.542,8.04-7.96c0.001-0.281-0.012-0.561-0.04-0.84
	L331.357,133.912z"/>
<path style="fill:#FFCBA8;" d="M322.021,64.184c-5.981-6.026-14.126-9.405-22.616-9.384h-24c-4.418,0-8,3.582-8,8v24
	c-0.013,17.673,14.304,32.01,31.977,32.023c17.673,0.013,32.01-14.304,32.023-31.977C331.411,78.345,328.035,70.192,322.021,64.184z
	"/>
<g>
	<path style="fill:#00214D;" d="M283.405,358.8h-24v-16h15.2l-7.12-71.2c-0.09-0.917-0.022-1.842,0.2-2.736l16-64l15.52,3.872
		l-15.664,62.648L291.405,350c0.442,4.396-2.764,8.318-7.16,8.76C283.966,358.788,283.686,358.801,283.405,358.8L283.405,358.8z"/>
	<path style="fill:#00214D;" d="M323.405,358.8h-16v-16h7.2l-7.12-71.2c-0.09-0.917-0.022-1.842,0.2-2.736l16-64l15.52,3.872
		l-15.664,62.648L331.405,350c0.442,4.396-2.764,8.318-7.16,8.76C323.966,358.788,323.686,358.801,323.405,358.8L323.405,358.8z"/>
	<path style="fill:#00214D;" d="M328.037,213.32l-9.264-13.04l45.824-32.728l-45.192-25.808l7.936-13.888l56,32
		c3.835,2.193,5.167,7.08,2.974,10.916c-0.571,0.999-1.351,1.862-2.286,2.532L328.037,213.32z"/>
</g>
<g>
	<path style="fill:#F5A329;" d="M227.405,150.8h16v320h-16V150.8z"/>
	<path style="fill:#F5A329;" d="M307.405,150.8h16v320h-16V150.8z"/>
	<path style="fill:#F5A329;" d="M235.405,438.8h80v16h-80V438.8z"/>
	<path style="fill:#F5A329;" d="M235.405,398.8h80v16h-80V398.8z"/>
	<path style="fill:#F5A329;" d="M235.405,358.8h80v16h-80V358.8z"/>
	<path style="fill:#F5A329;" d="M235.405,318.8h80v16h-80V318.8z"/>
	<path style="fill:#F5A329;" d="M235.405,278.8h80v16h-80V278.8z"/>
	<path style="fill:#F5A329;" d="M235.405,238.8h80v16h-80V238.8z"/>
	<path style="fill:#F5A329;" d="M235.405,198.8h80v16h-80V198.8z"/>
</g>
<g>
</g>
<g>
</g>
<g>
</g>
<g>
</g>
<g>
</g>
<g>
</g>
<g>
</g>
<g>
</g>
<g>
</g>
<g>
</g>
<g>
</g>
<g>
</g>
<g>
</g>
<g>
</g>
<g>
</g>
</svg>
