<?xml version="1.0" encoding="iso-8859-1"?>
<!-- Generator: Adobe Illustrator 19.0.0, SVG Export Plug-In . SVG Version: 6.00 Build 0)  -->
<svg version="1.1" id="Capa_1" xmlns="http://www.w3.org/2000/svg" xmlns:xlink="http://www.w3.org/1999/xlink" x="0px" y="0px"
	 viewBox="0 0 476.93 476.93" style="enable-background:new 0 0 476.93 476.93;" xml:space="preserve">
<path style="fill:#FFBD20;" d="M298.447,232.493l-38.72,5.6l-17.28,35.04l-17.28-35.04l-38.72-5.6l28-27.28l-6.64-38.56l34.64,18.16
	l34.64-18.16l-6.64,38.56L298.447,232.493z"/>
<path style="fill:#FAEDB1;" d="M153.807,461.533l0.64,11.28h-40v-14.4c0.007-86.363,41.72-167.407,112-217.6
	C175.08,302.49,149.109,381.404,153.807,461.533z"/>
<g>
	<path style="fill:#D32144;" d="M368.127,10.013h16v32h-16V10.013z"/>
	<path style="fill:#D32144;" d="M327.945,50.734l4.963-15.211l30.399,9.918l-4.963,15.211L327.945,50.734z"/>
	<path style="fill:#D32144;" d="M341.408,92.119l18.807-25.92l12.95,9.396l-18.807,25.92L341.408,92.119z"/>
	<path style="fill:#D32144;" d="M379.009,75.611l12.951-9.395l18.805,25.922l-12.951,9.395L379.009,75.611z"/>
	<path style="fill:#D32144;" d="M388.846,45.485l30.395-9.929l4.968,15.209l-30.395,9.929L388.846,45.485z"/>
</g>
<g>
	<path style="fill:#00448F;" d="M40.127,178.013h16v32h-16V178.013z"/>
	<path style="fill:#00448F;" d="M0,218.739l4.963-15.211l30.399,9.918l-4.963,15.211L0,218.739z"/>
	<path style="fill:#00448F;" d="M13.438,260.118l18.807-25.92l12.95,9.396l-18.807,25.92L13.438,260.118z"/>
	<path style="fill:#00448F;" d="M51.02,243.562l12.951-9.395l18.805,25.922l-12.951,9.395L51.02,243.562z"/>
	<path style="fill:#00448F;" d="M60.849,213.452l30.395-9.929l4.968,15.209l-30.395,9.929L60.849,213.452z"/>
</g>
<g>
	<path style="fill:#03AA6F;" d="M420.767,226.013h16v32h-16V226.013z"/>
	<path style="fill:#03AA6F;" d="M380.684,266.717l4.963-15.211l30.399,9.918l-4.963,15.211L380.684,266.717z"/>
	<path style="fill:#03AA6F;" d="M394.126,308.132l18.807-25.92l12.95,9.396l-18.807,25.92L394.126,308.132z"/>
	<path style="fill:#03AA6F;" d="M431.728,291.572l12.951-9.395l18.805,25.922l-12.951,9.395L431.728,291.572z"/>
	<path style="fill:#03AA6F;" d="M441.566,261.454l30.395-9.929l4.968,15.209l-30.395,9.929L441.566,261.454z"/>
</g>
<g>
	<path style="fill:#FFBD20;" d="M288.127,352.813h16v32h-16V352.813z"/>
	<path style="fill:#FFBD20;" d="M247.986,393.622l4.925-15.215l30.399,9.84l-4.925,15.215L247.986,393.622z"/>
	<path style="fill:#FFBD20;" d="M261.458,434.885l18.805-25.843l12.937,9.414l-18.805,25.843L261.458,434.885z"/>
	<path style="fill:#FFBD20;" d="M299.008,418.485l12.937-9.415l18.806,25.842l-12.937,9.415L299.008,418.485z"/>
	<path style="fill:#FFBD20;" d="M308.865,388.241l30.402-9.832l4.921,15.216l-30.402,9.832L308.865,388.241z"/>
</g>
<g>
	<path style="fill:#168DE2;" d="M116.767,63.613h16v32h-16V63.613z"/>
	<path style="fill:#168DE2;" d="M137.573,60.186l4.963-15.211l30.399,9.918l-4.963,15.211L137.573,60.186z"/>
	<path style="fill:#168DE2;" d="M127.727,30.043l18.807-25.92l12.95,9.396l-18.807,25.92L127.727,30.043z"/>
	<path style="fill:#168DE2;" d="M90.128,13.513l12.951-9.395l18.805,25.922l-12.951,9.395L90.128,13.513z"/>
	<path style="fill:#168DE2;" d="M76.68,54.893l30.395-9.929l4.968,15.209l-30.395,9.929L76.68,54.893z"/>
</g>
<path style="fill:#00448F;" d="M180.375,206.021c-24.31-28.223-66.309-32.839-96.168-10.568l-4.96,3.76l-9.6-12.8l4.96-3.76
	c36.609-27.334,88.125-21.687,117.944,12.928L180.375,206.021z"/>
<path style="fill:#168DE2;" d="M250.311,154.253l-15.728-2.88c8.647-47.013-17.986-93.381-62.952-109.6l-3.944-1.456l5.52-15.008
	l3.92,1.44C229.426,45.627,260.389,99.572,250.311,154.253z"/>
<path style="fill:#D32144;" d="M298.383,145.797l-15.872-1.968l2.64-21.28c3.656-29.267,22.936-54.232,50.328-65.168l5.936,14.864
	c-21.981,8.765-37.455,28.791-40.392,52.272L298.383,145.797z"/>
<path style="fill:#03AA6F;" d="M395.287,244.381c-12.992-25.788-40.62-40.811-69.328-37.696l-18.632,2.08l-1.76-15.904l18.64-2.072
	c35.378-3.832,69.423,14.679,85.44,46.456L395.287,244.381z"/>
<path style="fill:#FFBD20;" d="M330.207,370.757l-15.52-3.888c9.015-35.427-4.729-72.746-34.568-93.864l-2.4-1.712l9.376-12.96
	l2.32,1.68C324.625,284.924,340.844,328.957,330.207,370.757L330.207,370.757z"/>
<g>
</g>
<g>
</g>
<g>
</g>
<g>
</g>
<g>
</g>
<g>
</g>
<g>
</g>
<g>
</g>
<g>
</g>
<g>
</g>
<g>
</g>
<g>
</g>
<g>
</g>
<g>
</g>
<g>
</g>
</svg>
